<?xml version="1.0" encoding="utf-8"?>
<!-- Generator: Adobe Illustrator 21.0.2, SVG Export Plug-In . SVG Version: 6.00 Build 0)  -->
<svg version="1.1" id="Ebene_1" xmlns="http://www.w3.org/2000/svg" xmlns:xlink="http://www.w3.org/1999/xlink" x="0px" y="0px"
	 viewBox="0 0 127 203" style="enable-background:new 0 0 127 203;" xml:space="preserve">
<style type="text/css">
	.st0{opacity:0.7;}
	.st1{fill:url(#SVGID_1_);stroke:#000000;stroke-width:2;}
	.st2{fill:url(#SVGID_2_);stroke:#000000;stroke-width:2;}
	.st3{fill:url(#SVGID_3_);stroke:#000000;stroke-width:2;}
	.st4{opacity:0.6;fill:url(#SVGID_4_);stroke:#000000;stroke-width:2;enable-background:new    ;}
	.st5{fill:url(#SVGID_5_);stroke:#000000;stroke-width:2;}
	.st6{fill:url(#SVGID_6_);stroke:#000000;stroke-width:2;}
	.st7{opacity:0.6;fill:url(#SVGID_7_);stroke:#000000;stroke-width:2;enable-background:new    ;}
	.st8{fill:url(#SVGID_8_);stroke:#000000;stroke-width:2;}
	.st9{opacity:0.6;fill:url(#SVGID_9_);stroke:#000000;stroke-width:2;enable-background:new    ;}
	.st10{fill:url(#SVGID_10_);stroke:#000000;stroke-width:2;}
	.st11{opacity:0.6;fill:url(#SVGID_11_);stroke:#000000;stroke-width:2;enable-background:new    ;}
</style>
<title>Bishop_1</title>
<g>
	<g id="Ebene_2">
		<g id="Objects">
			<g class="st0">
				<image style="overflow:visible;enable-background:new    ;" width="127" height="203" xlink:href="18B5D5AE.png" >
				</image>
			</g>
			
				<linearGradient id="SVGID_1_" gradientUnits="userSpaceOnUse" x1="45.96" y1="145.875" x2="78.7" y2="145.875" gradientTransform="matrix(1 0 0 -1 0 204)">
				<stop  offset="0" style="stop-color:#FFFFFF"/>
				<stop  offset="0.66" style="stop-color:#CECECE"/>
				<stop  offset="0.92" style="stop-color:#B9B9B9"/>
				<stop  offset="1" style="stop-color:#999999"/>
			</linearGradient>
			<path class="st1" d="M72.4,45.6L69,62c-0.1,0.6-0.7,0.9-1.2,0.8c-0.6-0.1-0.9-0.7-0.8-1.2l0,0l3.8-18.3c-3.2-4.4-6.6-7.5-8.5-7.5
				C57.9,35.8,46,52.1,46,62.2s7.3,18.3,16.3,18.3s16.4-8.2,16.4-18.3C78.7,57.3,75.8,50.9,72.4,45.6z"/>
			
				<linearGradient id="SVGID_2_" gradientUnits="userSpaceOnUse" x1="46.23" y1="99.785" x2="72.35" y2="99.785" gradientTransform="matrix(1 0 0 -1 0 204)">
				<stop  offset="0" style="stop-color:#FFFFFF"/>
				<stop  offset="0.16" style="stop-color:#FFFFFF"/>
				<stop  offset="0.68" style="stop-color:#CECECE"/>
				<stop  offset="0.89" style="stop-color:#B9B9B9"/>
				<stop  offset="1" style="stop-color:#A3A3A3"/>
			</linearGradient>
			<polygon class="st2" points="76.3,129.4 48.4,129.4 54.4,79 70.3,79 			"/>
			
				<linearGradient id="SVGID_3_" gradientUnits="userSpaceOnUse" x1="43.67" y1="76.225" x2="79.49" y2="76.225" gradientTransform="matrix(1 0 0 -1 0 204)">
				<stop  offset="0" style="stop-color:#FFFFFF"/>
				<stop  offset="0.66" style="stop-color:#CECECE"/>
				<stop  offset="0.92" style="stop-color:#B9B9B9"/>
				<stop  offset="1" style="stop-color:#999999"/>
			</linearGradient>
			<path class="st3" d="M79.5,129.4c0,1.1-0.9,2-2,2H47.1c-1.1,0-2-0.9-2-2v-3.2c0-1.1,0.9-2,2-2h30.4c1.1,0,2,0.9,2,2L79.5,129.4z"
				/>
			
				<linearGradient id="SVGID_4_" gradientUnits="userSpaceOnUse" x1="43.17" y1="77.185" x2="59.74" y2="77.185" gradientTransform="matrix(1 0 0 -1 0 204)">
				<stop  offset="0" style="stop-color:#FFFFFF"/>
				<stop  offset="0.21" style="stop-color:#FFFFFF;stop-opacity:0.81"/>
				<stop  offset="0.69" style="stop-color:#FFFFFF;stop-opacity:0.32"/>
				<stop  offset="1" style="stop-color:#FFFFFF;stop-opacity:0"/>
			</linearGradient>
			<path class="st4" d="M45.1,129.4v-3.3c0-1.1,0.9-2,2-2H67c0,0-11.3,0.4-16,2S45.1,129.4,45.1,129.4z"/>
			
				<linearGradient id="SVGID_5_" gradientUnits="userSpaceOnUse" x1="44.9" y1="126.86" x2="73.19" y2="126.86" gradientTransform="matrix(1 0 0 -1 0 204)">
				<stop  offset="0" style="stop-color:#FFFFFF"/>
				<stop  offset="0.16" style="stop-color:#FFFFFF"/>
				<stop  offset="0.68" style="stop-color:#CECECE"/>
				<stop  offset="0.89" style="stop-color:#B9B9B9"/>
				<stop  offset="1" style="stop-color:#A3A3A3"/>
			</linearGradient>
			<path class="st5" d="M77.4,77.1c0,1-0.8,1.9-1.8,1.9c0,0,0,0,0,0H49.1c-1,0-1.9-0.8-1.9-1.9l0,0l0,0c0-1,0.8-1.9,1.9-1.9l0,0
				h26.4C76.6,75.3,77.4,76.1,77.4,77.1L77.4,77.1L77.4,77.1z"/>
			
				<linearGradient id="SVGID_6_" gradientUnits="userSpaceOnUse" x1="40.81" y1="69.57" x2="82.12" y2="69.57" gradientTransform="matrix(1 0 0 -1 0 204)">
				<stop  offset="0" style="stop-color:#FFFFFF"/>
				<stop  offset="0.66" style="stop-color:#CECECE"/>
				<stop  offset="0.92" style="stop-color:#B9B9B9"/>
				<stop  offset="1" style="stop-color:#999999"/>
			</linearGradient>
			<path class="st6" d="M82.2,136.3c0,1.3-1,2.3-2.3,2.3c0,0,0,0,0,0H44.8c-1.3,0-2.3-1-2.3-2.3c0,0,0,0,0,0v-3.7
				c0-1.3,1-2.3,2.3-2.3c0,0,0,0,0,0h35c1.3,0,2.3,1,2.3,2.3c0,0,0,0,0,0L82.2,136.3z"/>
			
				<linearGradient id="SVGID_7_" gradientUnits="userSpaceOnUse" x1="40.41" y1="70.695" x2="57.7" y2="70.695" gradientTransform="matrix(1 0 0 -1 0 204)">
				<stop  offset="0" style="stop-color:#FFFFFF"/>
				<stop  offset="0.21" style="stop-color:#FFFFFF;stop-opacity:0.81"/>
				<stop  offset="0.69" style="stop-color:#FFFFFF;stop-opacity:0.32"/>
				<stop  offset="1" style="stop-color:#FFFFFF;stop-opacity:0"/>
			</linearGradient>
			<path class="st7" d="M42.5,136.3v-3.8c0-1.3,1-2.3,2.3-2.3c0,0,0,0,0,0H67c0,0-12.3,0.5-17.7,2.3S42.5,136.3,42.5,136.3z"/>
			
				<linearGradient id="SVGID_8_" gradientUnits="userSpaceOnUse" x1="37.69" y1="61.515" x2="84.98" y2="61.515" gradientTransform="matrix(1 0 0 -1 0 204)">
				<stop  offset="0" style="stop-color:#FFFFFF"/>
				<stop  offset="0.66" style="stop-color:#CECECE"/>
				<stop  offset="0.92" style="stop-color:#B9B9B9"/>
				<stop  offset="1" style="stop-color:#999999"/>
			</linearGradient>
			<path class="st8" d="M85.1,144.6c0,1.5-1.2,2.6-2.7,2.6c0,0,0,0,0,0H42.3c-1.5,0-2.6-1.2-2.7-2.6v-4.2c0-1.5,1.2-2.6,2.7-2.6
				h40.1c1.5,0,2.7,1.2,2.7,2.6c0,0,0,0,0,0V144.6z"/>
			
				<linearGradient id="SVGID_9_" gradientUnits="userSpaceOnUse" x1="36.99" y1="62.8" x2="59.85" y2="62.8" gradientTransform="matrix(1 0 0 -1 0 204)">
				<stop  offset="0" style="stop-color:#FFFFFF"/>
				<stop  offset="0.21" style="stop-color:#FFFFFF;stop-opacity:0.81"/>
				<stop  offset="0.69" style="stop-color:#FFFFFF;stop-opacity:0.32"/>
				<stop  offset="1" style="stop-color:#FFFFFF;stop-opacity:0"/>
			</linearGradient>
			<path class="st9" d="M39.6,144.7v-4.3c0-1.5,1.2-2.6,2.7-2.6h27.5c0,0-16.2,0.6-22.4,2.7S39.6,144.7,39.6,144.7z"/>
			
				<linearGradient id="SVGID_10_" gradientUnits="userSpaceOnUse" x1="33.46" y1="49.03" x2="88.87" y2="49.03" gradientTransform="matrix(1 0 0 -1 0 204)">
				<stop  offset="0" style="stop-color:#FFFFFF"/>
				<stop  offset="0.66" style="stop-color:#CECECE"/>
				<stop  offset="0.92" style="stop-color:#B9B9B9"/>
				<stop  offset="1" style="stop-color:#999999"/>
			</linearGradient>
			<path class="st10" d="M88.9,162.2c0,1.7-1.4,3.1-3.1,3.1c0,0,0,0,0,0h-47c-1.7,0-3.1-1.4-3.1-3.1c0,0,0,0,0,0v-14.4
				c0-1.7,1.4-3.1,3.1-3.1h47c1.7,0,3.1,1.4,3.1,3.1V162.2z"/>
			
				<linearGradient id="SVGID_11_" gradientUnits="userSpaceOnUse" x1="32.9" y1="55.24" x2="58.77" y2="55.24" gradientTransform="matrix(1 0 0 -1 0 204)">
				<stop  offset="0" style="stop-color:#FFFFFF"/>
				<stop  offset="0.21" style="stop-color:#FFFFFF;stop-opacity:0.81"/>
				<stop  offset="0.69" style="stop-color:#FFFFFF;stop-opacity:0.32"/>
				<stop  offset="1" style="stop-color:#FFFFFF;stop-opacity:0"/>
			</linearGradient>
			<path class="st11" d="M35.7,152.8v-5c0-1.7,1.4-3.1,3.1-3.1h31c0,0-17.7,0.7-25,3.1S35.7,152.8,35.7,152.8z"/>
		</g>
	</g>
</g>
</svg>
