<?xml version="1.0" encoding="utf-8"?>
<!-- Generator: Adobe Illustrator 21.0.2, SVG Export Plug-In . SVG Version: 6.00 Build 0)  -->
<svg version="1.1" id="Ebene_1" xmlns="http://www.w3.org/2000/svg" xmlns:xlink="http://www.w3.org/1999/xlink" x="0px" y="0px"
	 viewBox="0 0 132 231" style="enable-background:new 0 0 132 231;" xml:space="preserve">
<style type="text/css">
	.st0{opacity:0.7;}
	.st1{fill:url(#SVGID_1_);stroke:#000000;stroke-width:2;}
	.st2{fill:url(#SVGID_2_);stroke:#000000;stroke-width:2;}
	.st3{fill:url(#SVGID_3_);stroke:#000000;stroke-width:2;}
	.st4{opacity:0.6;fill:url(#SVGID_4_);stroke:#000000;stroke-width:2;enable-background:new    ;}
	.st5{fill:url(#SVGID_5_);stroke:#000000;stroke-width:2;}
	.st6{fill:url(#SVGID_6_);stroke:#000000;stroke-width:2;}
	.st7{opacity:0.6;fill:url(#SVGID_7_);stroke:#000000;stroke-width:2;enable-background:new    ;}
	.st8{fill:url(#SVGID_8_);stroke:#000000;stroke-width:2;}
	.st9{opacity:0.6;fill:url(#SVGID_9_);stroke:#000000;stroke-width:2;enable-background:new    ;}
	.st10{fill:url(#SVGID_10_);stroke:#000000;stroke-width:2;}
	.st11{opacity:0.6;fill:url(#SVGID_11_);stroke:#000000;stroke-width:2;enable-background:new    ;}
</style>
<title>King_1</title>
<g>
	<g id="Ebene_2">
		<g id="Objects">
			<g class="st0">
				<image style="overflow:visible;enable-background:new    ;" width="132" height="231" xlink:href="8F4A599F.png" >
				</image>
			</g>
			
				<linearGradient id="SVGID_1_" gradientUnits="userSpaceOnUse" x1="40.93" y1="166.175" x2="87.78" y2="166.175" gradientTransform="matrix(1 0 0 -1 0 232)">
				<stop  offset="0" style="stop-color:#FFFFFF"/>
				<stop  offset="0.66" style="stop-color:#CECECE"/>
				<stop  offset="0.92" style="stop-color:#B9B9B9"/>
				<stop  offset="1" style="stop-color:#999999"/>
			</linearGradient>
			<path class="st1" d="M87.7,69c-0.9-3.3-17.9-7.1-17.9-7.1v-1.4c-0.1-0.7-0.4-1.4-0.8-2c0,0,2.3,0.1,2.7-1.2s-3.6-6.6-3.6-6.6
				s4.4,3.7,5.6,3.3s1.7-12.1,0.4-12.8s-6,3.2-6,3.2s3.8-6,3.3-7.4s-7-1.8-7-1.8s-6.5,0.4-7,1.8s3.3,7.4,3.3,7.4s-4.6-3.9-6-3.2
				S53.8,53.6,55,54s5.6-3.3,5.6-3.3s-3.9,5.4-3.6,6.6s2.7,1.2,2.7,1.2c-0.4,0.6-0.7,1.3-0.8,2v1.3c0,0-16.9,3.8-17.9,7.2
				s4,10.8,7.5,15.4s2.4,11.2,2.4,11.2l13.4,0.8l13.4-0.8c0,0-1.1-6.7,2.4-11.2S88.6,72.3,87.7,69z"/>
			
				<linearGradient id="SVGID_2_" gradientUnits="userSpaceOnUse" x1="46.5" y1="106.57" x2="75.48" y2="106.57" gradientTransform="matrix(1 0 0 -1 0 232)">
				<stop  offset="0" style="stop-color:#FFFFFF"/>
				<stop  offset="0.16" style="stop-color:#FFFFFF"/>
				<stop  offset="0.68" style="stop-color:#CECECE"/>
				<stop  offset="0.89" style="stop-color:#B9B9B9"/>
				<stop  offset="1" style="stop-color:#A3A3A3"/>
			</linearGradient>
			<polygon class="st2" points="79.8,153.4 48.9,153.4 55.6,97.4 73.2,97.4 			"/>
			
				<linearGradient id="SVGID_3_" gradientUnits="userSpaceOnUse" x1="43.66" y1="80.435" x2="83.39" y2="80.435" gradientTransform="matrix(1 0 0 -1 0 232)">
				<stop  offset="0" style="stop-color:#FFFFFF"/>
				<stop  offset="0.66" style="stop-color:#CECECE"/>
				<stop  offset="0.92" style="stop-color:#B9B9B9"/>
				<stop  offset="1" style="stop-color:#999999"/>
			</linearGradient>
			<path class="st3" d="M83.4,153.3c0,1.2-1,2.2-2.2,2.2H47.5c-1.2,0-2.2-1-2.2-2.2c0,0,0,0,0,0v-3.5c0-1.2,1-2.2,2.2-2.2h33.7
				c1.2,0,2.2,1,2.2,2.2V153.3z"/>
			
				<linearGradient id="SVGID_4_" gradientUnits="userSpaceOnUse" x1="43.11" y1="81.505" x2="61.48" y2="81.505" gradientTransform="matrix(1 0 0 -1 0 232)">
				<stop  offset="0" style="stop-color:#FFFFFF"/>
				<stop  offset="0.21" style="stop-color:#FFFFFF;stop-opacity:0.81"/>
				<stop  offset="0.69" style="stop-color:#FFFFFF;stop-opacity:0.32"/>
				<stop  offset="1" style="stop-color:#FFFFFF;stop-opacity:0"/>
			</linearGradient>
			<path class="st4" d="M45.3,153.4v-3.6c0-1.2,1-2.2,2.2-2.2h22c0,0-12.5,0.4-17.7,2.3S45.3,153.4,45.3,153.4z"/>
			
				<linearGradient id="SVGID_5_" gradientUnits="userSpaceOnUse" x1="45.02" y1="136.61" x2="76.4" y2="136.61" gradientTransform="matrix(1 0 0 -1 0 232)">
				<stop  offset="0" style="stop-color:#FFFFFF"/>
				<stop  offset="0.16" style="stop-color:#FFFFFF"/>
				<stop  offset="0.68" style="stop-color:#CECECE"/>
				<stop  offset="0.89" style="stop-color:#B9B9B9"/>
				<stop  offset="1" style="stop-color:#A3A3A3"/>
			</linearGradient>
			<path class="st5" d="M81.1,95.4c0,1.1-0.9,2.1-2.1,2.1c0,0,0,0,0,0H49.7c-1.1,0-2.1-0.9-2.1-2.1l0,0c0-1.1,0.9-2.1,2.1-2.1H79
				C80.1,93.3,81.1,94.3,81.1,95.4L81.1,95.4z"/>
			
				<linearGradient id="SVGID_6_" gradientUnits="userSpaceOnUse" x1="40.49" y1="73.05" x2="86.3" y2="73.05" gradientTransform="matrix(1 0 0 -1 0 232)">
				<stop  offset="0" style="stop-color:#FFFFFF"/>
				<stop  offset="0.66" style="stop-color:#CECECE"/>
				<stop  offset="0.92" style="stop-color:#B9B9B9"/>
				<stop  offset="1" style="stop-color:#999999"/>
			</linearGradient>
			<path class="st6" d="M86.4,161c0,1.4-1.1,2.6-2.6,2.6c0,0,0,0,0,0H44.9c-1.4,0-2.6-1.1-2.6-2.5c0,0,0,0,0,0v-4.1
				c0-1.4,1.2-2.6,2.6-2.6h38.9c1.4,0,2.6,1.1,2.6,2.6c0,0,0,0,0,0V161z"/>
			
				<linearGradient id="SVGID_7_" gradientUnits="userSpaceOnUse" x1="40.05" y1="74.295" x2="59.23" y2="74.295" gradientTransform="matrix(1 0 0 -1 0 232)">
				<stop  offset="0" style="stop-color:#FFFFFF"/>
				<stop  offset="0.21" style="stop-color:#FFFFFF;stop-opacity:0.81"/>
				<stop  offset="0.69" style="stop-color:#FFFFFF;stop-opacity:0.32"/>
				<stop  offset="1" style="stop-color:#FFFFFF;stop-opacity:0"/>
			</linearGradient>
			<path class="st7" d="M42.3,161.1v-4.2c0-1.4,1.2-2.6,2.6-2.6h24.6c0,0-13.6,0.5-19.6,2.6S42.3,161.1,42.3,161.1z"/>
			
				<linearGradient id="SVGID_8_" gradientUnits="userSpaceOnUse" x1="37.03" y1="64.125" x2="89.48" y2="64.125" gradientTransform="matrix(1 0 0 -1 0 232)">
				<stop  offset="0" style="stop-color:#FFFFFF"/>
				<stop  offset="0.66" style="stop-color:#CECECE"/>
				<stop  offset="0.92" style="stop-color:#B9B9B9"/>
				<stop  offset="1" style="stop-color:#999999"/>
			</linearGradient>
			<path class="st8" d="M89.6,170.2c0,1.6-1.3,2.9-2.9,2.9c0,0,0,0,0,0H42.1c-1.6,0-2.9-1.3-2.9-2.9c0,0,0,0,0,0v-4.7
				c0-1.6,1.3-2.9,2.9-2.9h44.5c1.6,0,2.9,1.3,2.9,2.9c0,0,0,0,0,0V170.2z"/>
			
				<linearGradient id="SVGID_9_" gradientUnits="userSpaceOnUse" x1="36.26" y1="65.545" x2="61.61" y2="65.545" gradientTransform="matrix(1 0 0 -1 0 232)">
				<stop  offset="0" style="stop-color:#FFFFFF"/>
				<stop  offset="0.21" style="stop-color:#FFFFFF;stop-opacity:0.81"/>
				<stop  offset="0.69" style="stop-color:#FFFFFF;stop-opacity:0.32"/>
				<stop  offset="1" style="stop-color:#FFFFFF;stop-opacity:0"/>
			</linearGradient>
			<path class="st9" d="M39.2,170.3v-4.8c0-1.6,1.3-2.9,2.9-2.9h30.5c0,0-18,0.6-24.8,3S39.2,170.3,39.2,170.3z"/>
			
				<linearGradient id="SVGID_10_" gradientUnits="userSpaceOnUse" x1="32.35" y1="50.295" x2="93.79" y2="50.295" gradientTransform="matrix(1 0 0 -1 0 232)">
				<stop  offset="0" style="stop-color:#FFFFFF"/>
				<stop  offset="0.66" style="stop-color:#CECECE"/>
				<stop  offset="0.92" style="stop-color:#B9B9B9"/>
				<stop  offset="1" style="stop-color:#999999"/>
			</linearGradient>
			<path class="st10" d="M93.9,189.7c0,1.9-1.6,3.4-3.4,3.4c0,0,0,0,0,0H38.3c-1.9,0-3.4-1.5-3.5-3.4v0v-16c0-1.9,1.5-3.4,3.4-3.4
				c0,0,0,0,0,0h52.2c1.9,0,3.4,1.5,3.4,3.4V189.7z"/>
			
				<linearGradient id="SVGID_11_" gradientUnits="userSpaceOnUse" x1="31.72" y1="57.19" x2="60.41" y2="57.19" gradientTransform="matrix(1 0 0 -1 0 232)">
				<stop  offset="0" style="stop-color:#FFFFFF"/>
				<stop  offset="0.21" style="stop-color:#FFFFFF;stop-opacity:0.81"/>
				<stop  offset="0.69" style="stop-color:#FFFFFF;stop-opacity:0.32"/>
				<stop  offset="1" style="stop-color:#FFFFFF;stop-opacity:0"/>
			</linearGradient>
			<path class="st11" d="M34.8,179.3v-5.6c0-1.9,1.5-3.4,3.4-3.4c0,0,0,0,0,0h34.4c0,0-19.6,0.7-27.7,3.5S34.8,179.3,34.8,179.3z"/>
		</g>
	</g>
</g>
</svg>
