<?xml version="1.0" encoding="utf-8"?>
<!-- Generator: Adobe Illustrator 21.0.2, SVG Export Plug-In . SVG Version: 6.00 Build 0)  -->
<svg version="1.1" id="Ebene_1" xmlns="http://www.w3.org/2000/svg" xmlns:xlink="http://www.w3.org/1999/xlink" x="0px" y="0px"
	 viewBox="0 0 131 231" style="enable-background:new 0 0 131 231;" xml:space="preserve">
<style type="text/css">
	.st0{opacity:0.7;}
	.st1{fill:url(#SVGID_1_);stroke:#FFFFFF;stroke-width:2;}
	.st2{fill:url(#SVGID_2_);stroke:#FFFFFF;stroke-width:2;}
	.st3{fill:url(#SVGID_3_);stroke:#FFFFFF;stroke-width:2;}
	.st4{opacity:0.6;fill:url(#SVGID_4_);stroke:#FFFFFF;stroke-width:2;enable-background:new    ;}
	.st5{fill:url(#SVGID_5_);stroke:#FFFFFF;stroke-width:2;}
	.st6{fill:url(#SVGID_6_);stroke:#FFFFFF;stroke-width:2;}
	.st7{opacity:0.6;fill:url(#SVGID_7_);stroke:#FFFFFF;stroke-width:2;enable-background:new    ;}
	.st8{fill:url(#SVGID_8_);stroke:#FFFFFF;stroke-width:2;}
	.st9{opacity:0.6;fill:url(#SVGID_9_);stroke:#FFFFFF;stroke-width:2;enable-background:new    ;}
	.st10{fill:url(#SVGID_10_);stroke:#FFFFFF;stroke-width:2;}
	.st11{opacity:0.6;fill:url(#SVGID_11_);stroke:#FFFFFF;stroke-width:2;enable-background:new    ;}
</style>
<title>King</title>
<g>
	<g id="Ebene_2">
		<g id="Objects">
			<g class="st0">
				<image style="overflow:visible;enable-background:new    ;" width="131" height="231" xlink:href="75CEFB26.png" >
				</image>
			</g>
			
				<linearGradient id="SVGID_1_" gradientUnits="userSpaceOnUse" x1="41.1153" y1="166.125" x2="87.6051" y2="166.125" gradientTransform="matrix(1 0 0 -1 0 232)">
				<stop  offset="0" style="stop-color:#4C4C4C"/>
				<stop  offset="0.92" style="stop-color:#212121"/>
				<stop  offset="1" style="stop-color:#000000"/>
			</linearGradient>
			<path class="st1" d="M87.5,69c-0.9-3.3-17.7-7-17.7-7v-1.4c-0.1-0.7-0.4-1.4-0.8-2c0,0,2.3,0.1,2.7-1.2s-3.5-6.5-3.5-6.5
				s4.3,3.7,5.6,3.3s1.7-12,0.3-12.7s-5.9,3.2-5.9,3.2s3.8-5.9,3.3-7.3s-7-1.8-7-1.8s-6.5,0.3-7,1.8s3.3,7.3,3.3,7.3
				s-4.6-3.9-5.9-3.2S53.8,53.8,55,54.2s5.6-3.3,5.6-3.3s-3.9,5.3-3.5,6.5s2.7,1.2,2.7,1.2c-0.4,0.6-0.7,1.3-0.8,2V62
				c0,0-16.7,3.7-17.7,7s4,10.8,7.4,15.3S51,95.4,51,95.4l13.3,0.8l13.3-0.8c0,0-1.1-6.6,2.4-11.1S88.4,72.4,87.5,69z"/>
			
				<linearGradient id="SVGID_2_" gradientUnits="userSpaceOnUse" x1="46.65" y1="105.965" x2="75.39" y2="105.965" gradientTransform="matrix(1 0 0 -1 0 232)">
				<stop  offset="0" style="stop-color:#707070"/>
				<stop  offset="0.22" style="stop-color:#4C4C4C"/>
				<stop  offset="0.88" style="stop-color:#212121"/>
				<stop  offset="1" style="stop-color:#0F0F0F"/>
			</linearGradient>
			<polygon class="st2" points="79.7,153.8 49,153.8 55.6,98.3 73.1,98.3 			"/>
			
				<linearGradient id="SVGID_3_" gradientUnits="userSpaceOnUse" x1="43.83" y1="80.035" x2="83.24" y2="80.035" gradientTransform="matrix(1 0 0 -1 0 232)">
				<stop  offset="0" style="stop-color:#4C4C4C"/>
				<stop  offset="0.92" style="stop-color:#212121"/>
				<stop  offset="1" style="stop-color:#000000"/>
			</linearGradient>
			<path class="st3" d="M83.3,153.7c0,1.2-1,2.2-2.2,2.2c0,0,0,0,0,0H47.6c-1.2,0-2.2-1-2.2-2.2v-3.5c0-1.2,1-2.2,2.2-2.2h33.5
				c1.2,0,2.2,1,2.2,2.2c0,0,0,0,0,0V153.7z"/>
			
				<linearGradient id="SVGID_4_" gradientUnits="userSpaceOnUse" x1="43.28" y1="81.1" x2="61.51" y2="81.1" gradientTransform="matrix(1 0 0 -1 0 232)">
				<stop  offset="0" style="stop-color:#595959"/>
				<stop  offset="0.57" style="stop-color:#525252;stop-opacity:0.45"/>
				<stop  offset="1" style="stop-color:#4C4C4C;stop-opacity:0"/>
			</linearGradient>
			<path class="st4" d="M45.4,153.8v-3.6c0-1.2,1-2.2,2.2-2.2h21.8c0,0-12.4,0.5-17.6,2.2S45.4,153.8,45.4,153.8z"/>
			
				<linearGradient id="SVGID_5_" gradientUnits="userSpaceOnUse" x1="45.18" y1="135.75" x2="76.31" y2="135.75" gradientTransform="matrix(1 0 0 -1 0 232)">
				<stop  offset="0" style="stop-color:#4C4C4C"/>
				<stop  offset="0.92" style="stop-color:#212121"/>
				<stop  offset="1" style="stop-color:#000000"/>
			</linearGradient>
			<path class="st5" d="M81,96.3c0,1.1-0.9,2-2,2H49.8c-1.1,0-2-0.9-2-2l0,0c0-1.1,0.9-2,2-2h29.1C80,94.3,80.9,95.1,81,96.3
				L81,96.3z"/>
			
				<linearGradient id="SVGID_6_" gradientUnits="userSpaceOnUse" x1="40.68" y1="72.69" x2="86.13" y2="72.69" gradientTransform="matrix(1 0 0 -1 0 232)">
				<stop  offset="0" style="stop-color:#4C4C4C"/>
				<stop  offset="0.92" style="stop-color:#212121"/>
				<stop  offset="1" style="stop-color:#000000"/>
			</linearGradient>
			<path class="st6" d="M86.2,161.3c0,1.4-1.1,2.5-2.5,2.5c0,0,0,0,0,0H45.1c-1.4,0-2.5-1.1-2.5-2.5c0,0,0,0,0,0v-4
				c0-1.4,1.1-2.5,2.5-2.5h38.6c1.4,0,2.6,1.1,2.6,2.5c0,0,0,0,0,0V161.3z"/>
			
				<linearGradient id="SVGID_7_" gradientUnits="userSpaceOnUse" x1="40.25" y1="73.945" x2="59.27" y2="73.945" gradientTransform="matrix(1 0 0 -1 0 232)">
				<stop  offset="0" style="stop-color:#595959"/>
				<stop  offset="0.57" style="stop-color:#525252;stop-opacity:0.45"/>
				<stop  offset="1" style="stop-color:#4C4C4C;stop-opacity:0"/>
			</linearGradient>
			<path class="st7" d="M42.5,161.4v-4.1c0-1.4,1.1-2.5,2.5-2.5h24.4c0,0-13.5,0.5-19.5,2.6S42.5,161.4,42.5,161.4z"/>
			
				<linearGradient id="SVGID_8_" gradientUnits="userSpaceOnUse" x1="37.25" y1="63.855" x2="89.29" y2="63.855" gradientTransform="matrix(1 0 0 -1 0 232)">
				<stop  offset="0" style="stop-color:#4C4C4C"/>
				<stop  offset="0.92" style="stop-color:#212121"/>
				<stop  offset="1" style="stop-color:#000000"/>
			</linearGradient>
			<path class="st8" d="M89.4,170.5c0,1.6-1.3,2.9-2.9,2.9c0,0,0,0,0,0H42.3c-1.6,0-2.9-1.3-2.9-2.9c0,0,0,0,0,0v-4.6
				c0-1.6,1.3-2.9,2.9-2.9h44.2c1.6,0,2.9,1.3,2.9,2.9V170.5z"/>
			
				<linearGradient id="SVGID_9_" gradientUnits="userSpaceOnUse" x1="36.48" y1="65.26" x2="61.64" y2="65.26" gradientTransform="matrix(1 0 0 -1 0 232)">
				<stop  offset="0" style="stop-color:#595959"/>
				<stop  offset="0.57" style="stop-color:#525252;stop-opacity:0.45"/>
				<stop  offset="1" style="stop-color:#4C4C4C;stop-opacity:0"/>
			</linearGradient>
			<path class="st9" d="M39.4,170.6v-4.7c0-1.6,1.3-2.9,2.9-2.9h30.3c0,0-17.8,0.6-24.7,2.9S39.4,170.6,39.4,170.6z"/>
			
				<linearGradient id="SVGID_10_" gradientUnits="userSpaceOnUse" x1="32.6" y1="50.095" x2="93.56" y2="50.095" gradientTransform="matrix(1 0 0 -1 0 232)">
				<stop  offset="0" style="stop-color:#4C4C4C"/>
				<stop  offset="0.92" style="stop-color:#212121"/>
				<stop  offset="1" style="stop-color:#000000"/>
			</linearGradient>
			<path class="st10" d="M93.7,189.8c0,1.9-1.5,3.4-3.4,3.4c0,0,0,0,0,0H38.5c-1.9,0-3.4-1.5-3.4-3.4c0,0,0,0,0,0V174
				c0-1.9,1.5-3.4,3.4-3.4h51.7c1.9,0,3.4,1.5,3.4,3.4V189.8z"/>
			
				<linearGradient id="SVGID_11_" gradientUnits="userSpaceOnUse" x1="31.99" y1="56.95" x2="60.45" y2="56.95" gradientTransform="matrix(1 0 0 -1 0 232)">
				<stop  offset="0" style="stop-color:#595959"/>
				<stop  offset="0.57" style="stop-color:#525252;stop-opacity:0.45"/>
				<stop  offset="1" style="stop-color:#4C4C4C;stop-opacity:0"/>
			</linearGradient>
			<path class="st11" d="M35.1,179.5V174c0-1.9,1.5-3.4,3.4-3.4h34.1c0,0-19.5,0.7-27.5,3.5S35.1,179.5,35.1,179.5z"/>
		</g>
	</g>
</g>
</svg>
