<?xml version="1.0" encoding="utf-8"?>
<!-- Generator: Adobe Illustrator 21.0.2, SVG Export Plug-In . SVG Version: 6.00 Build 0)  -->
<svg version="1.1" id="Ebene_1" xmlns="http://www.w3.org/2000/svg" xmlns:xlink="http://www.w3.org/1999/xlink" x="0px" y="0px"
	 viewBox="0 0 135 188" style="enable-background:new 0 0 135 188;" xml:space="preserve">
<style type="text/css">
	.st0{opacity:0.7;}
	.st1{fill:url(#SVGID_1_);stroke:#FFFFFF;stroke-width:2;}
	.st2{fill:#333333;stroke:#FFFFFF;stroke-width:2;}
	.st3{fill:url(#SVGID_2_);stroke:#FFFFFF;stroke-width:2;}
	.st4{opacity:0.6;fill:url(#SVGID_3_);stroke:#FFFFFF;stroke-width:2;enable-background:new    ;}
	.st5{fill:url(#SVGID_4_);stroke:#FFFFFF;stroke-width:2;}
	.st6{opacity:0.6;fill:url(#SVGID_5_);stroke:#FFFFFF;stroke-width:2;enable-background:new    ;}
	.st7{fill:url(#SVGID_6_);stroke:#FFFFFF;stroke-width:2;}
	.st8{opacity:0.6;fill:url(#SVGID_7_);stroke:#FFFFFF;stroke-width:2;enable-background:new    ;}
	.st9{fill:url(#SVGID_8_);stroke:#FFFFFF;stroke-width:2;}
	.st10{opacity:0.6;fill:url(#SVGID_9_);stroke:#FFFFFF;stroke-width:2;enable-background:new    ;}
</style>
<title>Knight</title>
<g>
	<g id="Ebene_2">
		<g id="Objects">
			<g class="st0">
				<image style="overflow:visible;enable-background:new    ;" width="135" height="188" xlink:href="76875402.png" >
				</image>
			</g>
			
				<linearGradient id="SVGID_1_" gradientUnits="userSpaceOnUse" x1="35.58" y1="118.4718" x2="91.56" y2="118.4718" gradientTransform="matrix(1 0 0 -1 0 190)">
				<stop  offset="0" style="stop-color:#4C4C4C"/>
				<stop  offset="0.92" style="stop-color:#212121"/>
				<stop  offset="1" style="stop-color:#000000"/>
			</linearGradient>
			<path class="st1" d="M87.6,88.9c-0.2-1.6,1.5-8.4-3.8-11.3S66.9,67.3,66.7,65.2s4.5-4.3,8.2-3.9s7.5,4.2,9.5,3.9s2.1-2.3,3.4-2.5
				c1.1-0.2,1.8-1.3,1.5-2.4c-0.1-0.2-0.2-0.5-0.3-0.7c-0.8-1-8.8-5-7.5-5.6s7.4,4.3,8.3,3s2.9-2.5,1.4-5.4s-1.5-6.4-4.7-7.6
				S70.3,40.6,68,39.5s-7.4-0.2-10.1-0.7s-10.1-2.8-14-3.3s-3.2,1.6-0.7,3.5c0.3,0.2-0.7,1.3-1.8,3.3C40,41.8,38.5,42.6,38,44
				c-0.3,0.8-0.2,1.6,0.3,2.3c-1.4,0.6-2,2.2-1.4,3.5c0.1,0.3,0.3,0.5,0.5,0.8c-1.2,0.8-1.5,2.5-0.7,3.8c0.2,0.3,0.4,0.5,0.7,0.7
				c-1.4,0.6-2,2.1-1.5,3.5c0.2,0.5,0.6,0.9,1,1.2c-1,1.1-0.9,2.8,0.1,3.8c-0.7,1.3-0.3,2.9,1,3.7c0.1,0,0.1,0.1,0.2,0.1
				c-0.7,1.3-0.3,2.9,1,3.7c0,0,0,0,0,0c-0.8,1.3-0.4,2.9,0.9,3.7c0.1,0.1,0.3,0.1,0.4,0.2c0,0.1,0,0.1,0,0.2c0,1.2,0.9,2.3,2.1,2.6
				c0,0,0,0.1,0,0.1c0,1.4,1,2.6,2.4,2.7c0.5,0.8,1.1,1.5,1.7,2.2c7.4,8.7,1.8,20.8,2.3,22.8s3.7,1.7,12.4,1.9s22,0.1,25.3-2.3
				s4.7-6.1,4.1-9.2S87.8,90.5,87.6,88.9z"/>
			<polygon class="st2" points="43.9,128.6 43.9,128.6 43.9,128.6 			"/>
			
				<linearGradient id="SVGID_2_" gradientUnits="userSpaceOnUse" x1="47.12" y1="81.325" x2="86.81" y2="81.325" gradientTransform="matrix(1 0 0 -1 0 190)">
				<stop  offset="0" style="stop-color:#4C4C4C"/>
				<stop  offset="0.92" style="stop-color:#212121"/>
				<stop  offset="1" style="stop-color:#000000"/>
			</linearGradient>
			<path class="st3" d="M86.9,110.4c0,1.2-1,2.2-2.2,2.2c0,0,0,0,0,0H51c-1.2,0-2.2-1-2.2-2.2l0,0v-3.5c0-1.2,1-2.2,2.2-2.2h33.6
				c1.2,0,2.2,1,2.2,2.2V110.4z"/>
			
				<linearGradient id="SVGID_3_" gradientUnits="userSpaceOnUse" x1="46.57" y1="82.4002" x2="64.93" y2="82.4002" gradientTransform="matrix(1 0 0 -1 0 190)">
				<stop  offset="0" style="stop-color:#595959"/>
				<stop  offset="0.57" style="stop-color:#525252;stop-opacity:0.45"/>
				<stop  offset="1" style="stop-color:#4C4C4C;stop-opacity:0"/>
			</linearGradient>
			<path class="st4" d="M48.7,110.5v-3.6c0-1.2,1-2.2,2.2-2.2c0,0,0,0,0,0h22c0,0-12.5,0.5-17.7,2.3S48.7,110.5,48.7,110.5z"/>
			
				<linearGradient id="SVGID_4_" gradientUnits="userSpaceOnUse" x1="43.95" y1="73.96" x2="89.72" y2="73.96" gradientTransform="matrix(1 0 0 -1 0 190)">
				<stop  offset="0" style="stop-color:#4C4C4C"/>
				<stop  offset="0.92" style="stop-color:#212121"/>
				<stop  offset="1" style="stop-color:#000000"/>
			</linearGradient>
			<path class="st5" d="M89.8,118.1c0,1.4-1.2,2.6-2.6,2.6c0,0,0,0,0,0H48.4c-1.4,0-2.6-1.1-2.6-2.5c0,0,0,0,0,0V114
				c0-1.4,1.2-2.6,2.6-2.6c0,0,0,0,0,0h38.9c1.4,0,2.6,1.1,2.6,2.5c0,0,0,0,0,0V118.1z"/>
			
				<linearGradient id="SVGID_5_" gradientUnits="userSpaceOnUse" x1="43.51" y1="75.195" x2="62.67" y2="75.195" gradientTransform="matrix(1 0 0 -1 0 190)">
				<stop  offset="0" style="stop-color:#595959"/>
				<stop  offset="0.57" style="stop-color:#525252;stop-opacity:0.45"/>
				<stop  offset="1" style="stop-color:#4C4C4C;stop-opacity:0"/>
			</linearGradient>
			<path class="st6" d="M45.8,118.2V114c0-1.4,1.2-2.6,2.6-2.6c0,0,0,0,0,0H73c0,0-13.6,0.6-19.7,2.6S45.8,118.2,45.8,118.2z"/>
			
				<linearGradient id="SVGID_6_" gradientUnits="userSpaceOnUse" x1="40.5" y1="65.0449" x2="92.9" y2="65.0449" gradientTransform="matrix(1 0 0 -1 0 190)">
				<stop  offset="0" style="stop-color:#4C4C4C"/>
				<stop  offset="0.92" style="stop-color:#212121"/>
				<stop  offset="1" style="stop-color:#000000"/>
			</linearGradient>
			<path class="st7" d="M93,127.3c0,1.6-1.3,2.9-2.9,2.9c0,0,0,0-0.1,0H45.6c-1.6,0-2.9-1.3-2.9-2.9c0,0,0,0,0,0v-4.7
				c0-1.6,1.3-2.9,2.9-2.9H90c1.6,0,3,1.3,3,2.9c0,0,0,0,0,0.1V127.3z"/>
			
				<linearGradient id="SVGID_7_" gradientUnits="userSpaceOnUse" x1="39.72" y1="66.455" x2="65.05" y2="66.455" gradientTransform="matrix(1 0 0 -1 0 190)">
				<stop  offset="0" style="stop-color:#595959"/>
				<stop  offset="0.57" style="stop-color:#525252;stop-opacity:0.45"/>
				<stop  offset="1" style="stop-color:#4C4C4C;stop-opacity:0"/>
			</linearGradient>
			<path class="st8" d="M42.6,127.4v-4.8c0-1.6,1.3-2.9,2.9-2.9h30.5c0,0-17.9,0.6-24.8,3S42.6,127.4,42.6,127.4z"/>
			
				<linearGradient id="SVGID_8_" gradientUnits="userSpaceOnUse" x1="35.82" y1="51.225" x2="97.21" y2="51.225" gradientTransform="matrix(1 0 0 -1 0 190)">
				<stop  offset="0" style="stop-color:#4C4C4C"/>
				<stop  offset="0.92" style="stop-color:#212121"/>
				<stop  offset="1" style="stop-color:#000000"/>
			</linearGradient>
			<path class="st9" d="M97.3,146.8c0,1.9-1.5,3.4-3.4,3.4H41.7c-1.9,0-3.4-1.5-3.4-3.4v-16c0-1.9,1.5-3.4,3.4-3.4l0,0h52.1
				c1.9,0,3.4,1.5,3.4,3.4l0,0V146.8z"/>
			
				<linearGradient id="SVGID_9_" gradientUnits="userSpaceOnUse" x1="35.19" y1="58.11" x2="63.86" y2="58.11" gradientTransform="matrix(1 0 0 -1 0 190)">
				<stop  offset="0" style="stop-color:#595959"/>
				<stop  offset="0.57" style="stop-color:#525252;stop-opacity:0.45"/>
				<stop  offset="1" style="stop-color:#4C4C4C;stop-opacity:0"/>
			</linearGradient>
			<path class="st10" d="M38.3,136.4v-5.6c0-1.9,1.5-3.4,3.4-3.4l0,0h34.3c0,0-19.6,0.7-27.7,3.5S38.3,136.4,38.3,136.4z"/>
		</g>
	</g>
</g>
</svg>
