<?xml version="1.0" encoding="utf-8"?>
<!-- Generator: Adobe Illustrator 21.0.2, SVG Export Plug-In . SVG Version: 6.00 Build 0)  -->
<svg version="1.1" id="Ebene_1" xmlns="http://www.w3.org/2000/svg" xmlns:xlink="http://www.w3.org/1999/xlink" x="0px" y="0px"
	 viewBox="0 0 135 188" style="enable-background:new 0 0 135 188;" xml:space="preserve">
<style type="text/css">
	.st0{opacity:0.7;}
	.st1{fill:url(#SVGID_1_);stroke:#000000;stroke-width:2;}
	.st2{fill:url(#SVGID_2_);stroke:#000000;stroke-width:2;}
	.st3{opacity:0.6;fill:url(#SVGID_3_);stroke:#000000;stroke-width:2;enable-background:new    ;}
	.st4{fill:url(#SVGID_4_);stroke:#000000;stroke-width:2;}
	.st5{opacity:0.6;fill:url(#SVGID_5_);stroke:#000000;stroke-width:2;enable-background:new    ;}
	.st6{fill:url(#SVGID_6_);stroke:#000000;stroke-width:2;}
	.st7{opacity:0.6;fill:url(#SVGID_7_);stroke:#000000;stroke-width:2;enable-background:new    ;}
	.st8{fill:url(#SVGID_8_);stroke:#000000;stroke-width:2;}
	.st9{opacity:0.6;fill:url(#SVGID_9_);stroke:#000000;stroke-width:2;enable-background:new    ;}
</style>
<title>Knight_1</title>
<g>
	<g id="Ebene_2">
		<g id="Objects">
			<g class="st0">
				<image style="overflow:visible;enable-background:new    ;" width="135" height="188" xlink:href="A6050F21.png" >
				</image>
			</g>
			
				<linearGradient id="SVGID_1_" gradientUnits="userSpaceOnUse" x1="35.4075" y1="118.5978" x2="91.4562" y2="118.5978" gradientTransform="matrix(1 0 0 -1 0 190)">
				<stop  offset="0" style="stop-color:#FFFFFF"/>
				<stop  offset="0.66" style="stop-color:#CECECE"/>
				<stop  offset="0.92" style="stop-color:#B9B9B9"/>
				<stop  offset="1" style="stop-color:#999999"/>
			</linearGradient>
			<path class="st1" d="M87.4,88.8c-0.2-1.6,1.5-8.4-3.8-11.3S66.8,67.1,66.5,65.1s4.5-4.3,8.2-3.9s7.5,4.2,9.5,3.9s2.1-2.3,3.4-2.5
				c1.1-0.2,1.8-1.3,1.5-2.4c-0.1-0.2-0.2-0.5-0.3-0.7c-0.8-1-8.8-5-7.6-5.6s7.4,4.3,8.3,3s2.9-2.5,1.3-5.5s-1.5-6.4-4.6-7.6
				s-16.1-3.3-18.4-4.4s-7.4-0.2-10.1-0.7s-10.1-2.8-14-3.3S40.5,37,43,38.9c0.3,0.2-0.7,1.3-1.8,3.3c-1.4-0.5-2.9,0.3-3.4,1.7
				c-0.3,0.8-0.2,1.6,0.3,2.3c-1.4,0.6-2,2.2-1.4,3.5c0.1,0.3,0.3,0.5,0.5,0.8c-1.2,0.8-1.6,2.5-0.7,3.7c0.2,0.3,0.4,0.5,0.7,0.7
				c-1.4,0.6-2,2.1-1.5,3.5c0.2,0.5,0.6,0.9,1,1.2c-1,1.1-0.9,2.8,0.1,3.8c-0.7,1.3-0.3,2.9,1,3.7c0.1,0,0.1,0.1,0.2,0.1
				c-0.8,1.3-0.3,2.9,0.9,3.7c0,0,0,0,0.1,0c-0.8,1.3-0.4,2.9,0.9,3.7c0.1,0.1,0.3,0.2,0.4,0.2c0,0.1,0,0.1,0,0.2
				c0,1.3,0.9,2.3,2.1,2.6c0,0,0,0,0,0.1c0,1.4,1,2.5,2.4,2.7c0.5,0.8,1.1,1.5,1.7,2.2c7.4,8.7,1.8,20.9,2.3,22.8s3.7,1.7,12.4,1.9
				s22,0.1,25.3-2.3s4.8-6.1,4.1-9.3S87.7,90.4,87.4,88.8z"/>
			
				<linearGradient id="SVGID_2_" gradientUnits="userSpaceOnUse" x1="47.24" y1="81.435" x2="86.96" y2="81.435" gradientTransform="matrix(1 0 0 -1 0 190)">
				<stop  offset="0" style="stop-color:#FFFFFF"/>
				<stop  offset="0.66" style="stop-color:#CECECE"/>
				<stop  offset="0.92" style="stop-color:#B9B9B9"/>
				<stop  offset="1" style="stop-color:#999999"/>
			</linearGradient>
			<path class="st2" d="M87,110.3c0,1.2-1,2.2-2.2,2.2H51.1c-1.2,0-2.2-1-2.2-2.2c0,0,0,0,0,0v-3.5c0-1.2,1-2.2,2.2-2.2h33.7
				c1.2,0,2.2,1,2.2,2.2V110.3z"/>
			
				<linearGradient id="SVGID_3_" gradientUnits="userSpaceOnUse" x1="46.68" y1="82.505" x2="65.06" y2="82.505" gradientTransform="matrix(1 0 0 -1 0 190)">
				<stop  offset="0" style="stop-color:#FFFFFF"/>
				<stop  offset="0.21" style="stop-color:#FFFFFF;stop-opacity:0.81"/>
				<stop  offset="0.69" style="stop-color:#FFFFFF;stop-opacity:0.32"/>
				<stop  offset="1" style="stop-color:#FFFFFF;stop-opacity:0"/>
			</linearGradient>
			<path class="st3" d="M48.8,110.4v-3.6c0-1.2,1-2.2,2.2-2.2h22c0,0-12.5,0.5-17.7,2.3S48.8,110.4,48.8,110.4z"/>
			
				<linearGradient id="SVGID_4_" gradientUnits="userSpaceOnUse" x1="44.07" y1="74.05" x2="89.88" y2="74.05" gradientTransform="matrix(1 0 0 -1 0 190)">
				<stop  offset="0" style="stop-color:#FFFFFF"/>
				<stop  offset="0.66" style="stop-color:#CECECE"/>
				<stop  offset="0.92" style="stop-color:#B9B9B9"/>
				<stop  offset="1" style="stop-color:#999999"/>
			</linearGradient>
			<path class="st4" d="M89.9,118c0,1.4-1.1,2.6-2.6,2.6c0,0,0,0,0,0H48.5c-1.4,0-2.6-1.1-2.6-2.5c0,0,0,0,0,0v-4.1
				c0-1.4,1.1-2.6,2.6-2.6c0,0,0,0,0,0h38.9c1.4,0,2.6,1.1,2.6,2.6c0,0,0,0,0,0L89.9,118z"/>
			
				<linearGradient id="SVGID_5_" gradientUnits="userSpaceOnUse" x1="43.63" y1="75.295" x2="62.8" y2="75.295" gradientTransform="matrix(1 0 0 -1 0 190)">
				<stop  offset="0" style="stop-color:#FFFFFF"/>
				<stop  offset="0.21" style="stop-color:#FFFFFF;stop-opacity:0.81"/>
				<stop  offset="0.69" style="stop-color:#FFFFFF;stop-opacity:0.32"/>
				<stop  offset="1" style="stop-color:#FFFFFF;stop-opacity:0"/>
			</linearGradient>
			<path class="st5" d="M45.9,118.1v-4.2c0-1.4,1.1-2.6,2.6-2.6c0,0,0,0,0,0h24.6c0,0-13.6,0.5-19.6,2.6S45.9,118.1,45.9,118.1z"/>
			
				<linearGradient id="SVGID_6_" gradientUnits="userSpaceOnUse" x1="40.61" y1="65.125" x2="93.06" y2="65.125" gradientTransform="matrix(1 0 0 -1 0 190)">
				<stop  offset="0" style="stop-color:#FFFFFF"/>
				<stop  offset="0.66" style="stop-color:#CECECE"/>
				<stop  offset="0.92" style="stop-color:#B9B9B9"/>
				<stop  offset="1" style="stop-color:#999999"/>
			</linearGradient>
			<path class="st6" d="M93.1,127.2c0,1.6-1.3,2.9-2.9,2.9c0,0,0,0,0,0H45.7c-1.6,0-2.9-1.3-2.9-2.9c0,0,0,0,0,0v-4.7
				c0-1.6,1.3-2.9,2.9-2.9h44.5c1.6,0,2.9,1.3,2.9,2.9c0,0,0,0,0,0L93.1,127.2z"/>
			
				<linearGradient id="SVGID_7_" gradientUnits="userSpaceOnUse" x1="39.83" y1="66.545" x2="65.19" y2="66.545" gradientTransform="matrix(1 0 0 -1 0 190)">
				<stop  offset="0" style="stop-color:#FFFFFF"/>
				<stop  offset="0.21" style="stop-color:#FFFFFF;stop-opacity:0.81"/>
				<stop  offset="0.69" style="stop-color:#FFFFFF;stop-opacity:0.32"/>
				<stop  offset="1" style="stop-color:#FFFFFF;stop-opacity:0"/>
			</linearGradient>
			<path class="st7" d="M42.7,127.3v-4.8c0-1.6,1.3-2.9,2.9-2.9h30.6c0,0-18,0.6-24.8,3S42.7,127.3,42.7,127.3z"/>
			
				<linearGradient id="SVGID_8_" gradientUnits="userSpaceOnUse" x1="35.92" y1="51.295" x2="97.37" y2="51.295" gradientTransform="matrix(1 0 0 -1 0 190)">
				<stop  offset="0" style="stop-color:#FFFFFF"/>
				<stop  offset="0.66" style="stop-color:#CECECE"/>
				<stop  offset="0.92" style="stop-color:#B9B9B9"/>
				<stop  offset="1" style="stop-color:#999999"/>
			</linearGradient>
			<path class="st8" d="M97.5,146.7c0,1.9-1.6,3.4-3.4,3.4c0,0,0,0,0,0H41.9c-1.9,0-3.4-1.5-3.5-3.4v0v-16c0-1.9,1.5-3.4,3.4-3.4
				c0,0,0,0,0,0H94c1.9,0,3.4,1.5,3.4,3.4L97.5,146.7z"/>
			
				<linearGradient id="SVGID_9_" gradientUnits="userSpaceOnUse" x1="35.3" y1="58.19" x2="63.99" y2="58.19" gradientTransform="matrix(1 0 0 -1 0 190)">
				<stop  offset="0" style="stop-color:#FFFFFF"/>
				<stop  offset="0.21" style="stop-color:#FFFFFF;stop-opacity:0.81"/>
				<stop  offset="0.69" style="stop-color:#FFFFFF;stop-opacity:0.32"/>
				<stop  offset="1" style="stop-color:#FFFFFF;stop-opacity:0"/>
			</linearGradient>
			<path class="st9" d="M38.4,136.3v-5.6c0-1.9,1.5-3.4,3.4-3.4c0,0,0,0,0,0h34.4c0,0-19.6,0.7-27.7,3.5S38.4,136.3,38.4,136.3z"/>
		</g>
	</g>
</g>
</svg>
