<?xml version="1.0" encoding="utf-8"?>
<!-- Generator: Adobe Illustrator 21.0.2, SVG Export Plug-In . SVG Version: 6.00 Build 0)  -->
<svg version="1.1" id="Ebene_1" xmlns="http://www.w3.org/2000/svg" xmlns:xlink="http://www.w3.org/1999/xlink" x="0px" y="0px"
	 viewBox="0 0 121 175" style="enable-background:new 0 0 121 175;" xml:space="preserve">
<style type="text/css">
	.st0{fill:#333333;stroke:#FFFFFF;stroke-width:2;}
	.st1{opacity:0.7;}
	.st2{fill:url(#SVGID_1_);stroke:#FFFFFF;stroke-width:2;}
	.st3{fill:url(#SVGID_2_);stroke:#FFFFFF;stroke-width:2;}
	.st4{fill:url(#SVGID_3_);stroke:#FFFFFF;stroke-width:2;}
	.st5{opacity:0.6;fill:url(#SVGID_4_);stroke:#FFFFFF;stroke-width:2;enable-background:new    ;}
	.st6{fill:url(#SVGID_5_);stroke:#FFFFFF;stroke-width:2;}
	.st7{fill:url(#SVGID_6_);stroke:#FFFFFF;stroke-width:2;}
	.st8{opacity:0.6;fill:url(#SVGID_7_);stroke:#FFFFFF;stroke-width:2;enable-background:new    ;}
	.st9{fill:url(#SVGID_8_);stroke:#FFFFFF;stroke-width:2;}
	.st10{opacity:0.6;fill:url(#SVGID_9_);stroke:#FFFFFF;stroke-width:2;enable-background:new    ;}
	.st11{fill:url(#SVGID_10_);stroke:#FFFFFF;stroke-width:2;}
	.st12{opacity:0.6;fill:url(#SVGID_11_);stroke:#FFFFFF;stroke-width:2;enable-background:new    ;}
</style>
<title>Element 1</title>
<g>
	<g id="Ebene_2">
		<g id="Objects">
			<polygon class="st0" points="39.9,119.7 39.9,119.8 39.9,119.8 			"/>
			<g class="st1">
				<image style="overflow:visible;enable-background:new    ;" width="121" height="175" xlink:href="D74A088E.png" >
				</image>
			</g>
			
				<linearGradient id="SVGID_1_" gradientUnits="userSpaceOnUse" x1="51.4235" y1="140.1723" x2="65.0435" y2="119.2223" gradientTransform="matrix(1 0 0 -1 0 176)">
				<stop  offset="0" style="stop-color:#808080"/>
				<stop  offset="0.26" style="stop-color:#4C4C4C"/>
				<stop  offset="0.92" style="stop-color:#212121"/>
				<stop  offset="1" style="stop-color:#000000"/>
			</linearGradient>
			<circle class="st2" cx="59.5" cy="48.2" r="12.5"/>
			
				<linearGradient id="SVGID_2_" gradientUnits="userSpaceOnUse" x1="44.84" y1="94.06" x2="68.59" y2="94.06" gradientTransform="matrix(1 0 0 -1 0 176)">
				<stop  offset="0" style="stop-color:#707070"/>
				<stop  offset="0.22" style="stop-color:#4C4C4C"/>
				<stop  offset="0.88" style="stop-color:#212121"/>
				<stop  offset="1" style="stop-color:#0F0F0F"/>
			</linearGradient>
			<polygon class="st3" points="72.1,104.9 46.8,104.9 52.3,59 66.7,59 			"/>
			
				<linearGradient id="SVGID_3_" gradientUnits="userSpaceOnUse" x1="42.52" y1="72.64" x2="75.07" y2="72.64" gradientTransform="matrix(1 0 0 -1 0 176)">
				<stop  offset="0" style="stop-color:#4C4C4C"/>
				<stop  offset="0.92" style="stop-color:#212121"/>
				<stop  offset="1" style="stop-color:#000000"/>
			</linearGradient>
			<path class="st4" d="M75.1,104.8c0,1-0.8,1.8-1.8,1.8c0,0,0,0,0,0H45.7c-1,0-1.8-0.8-1.8-1.8v-2.9c0-1,0.8-1.8,1.8-1.8h27.6
				c1,0,1.8,0.8,1.8,1.8V104.8z"/>
			
				<linearGradient id="SVGID_4_" gradientUnits="userSpaceOnUse" x1="42.06" y1="73.54" x2="57.12" y2="73.54" gradientTransform="matrix(1 0 0 -1 0 176)">
				<stop  offset="0" style="stop-color:#595959"/>
				<stop  offset="0.57" style="stop-color:#525252;stop-opacity:0.45"/>
				<stop  offset="1" style="stop-color:#4C4C4C;stop-opacity:0"/>
			</linearGradient>
			<path class="st5" d="M43.8,104.9v-3c0-1,0.8-1.8,1.8-1.8h18.1c0,0-10.2,0.4-14.5,1.8S43.8,104.9,43.8,104.9z"/>
			
				<linearGradient id="SVGID_5_" gradientUnits="userSpaceOnUse" x1="43.63" y1="118.69" x2="69.35" y2="118.69" gradientTransform="matrix(1 0 0 -1 0 176)">
				<stop  offset="0" style="stop-color:#4C4C4C"/>
				<stop  offset="0.92" style="stop-color:#212121"/>
				<stop  offset="1" style="stop-color:#000000"/>
			</linearGradient>
			<path class="st6" d="M73.2,57.3c0,0.9-0.8,1.7-1.7,1.7c0,0,0,0,0,0h-24c-0.9,0-1.7-0.8-1.7-1.7l0,0c0-0.9,0.8-1.7,1.7-1.7h24
				C72.4,55.6,73.2,56.4,73.2,57.3L73.2,57.3L73.2,57.3z"/>
			
				<linearGradient id="SVGID_6_" gradientUnits="userSpaceOnUse" x1="39.92" y1="66.605" x2="77.47" y2="66.605" gradientTransform="matrix(1 0 0 -1 0 176)">
				<stop  offset="0" style="stop-color:#4C4C4C"/>
				<stop  offset="0.92" style="stop-color:#212121"/>
				<stop  offset="1" style="stop-color:#000000"/>
			</linearGradient>
			<path class="st7" d="M77.5,111.1c0,1.2-0.9,2.1-2.1,2.1c0,0,0,0,0,0H43.5c-1.2,0-2.1-0.9-2.1-2.1c0,0,0,0,0,0v-3.3
				c0-1.2,0.9-2.1,2.1-2.1c0,0,0,0,0,0h31.9c1.2,0,2.1,0.9,2.1,2.1c0,0,0,0,0,0L77.5,111.1z"/>
			
				<linearGradient id="SVGID_7_" gradientUnits="userSpaceOnUse" x1="39.56" y1="67.62" x2="55.27" y2="67.62" gradientTransform="matrix(1 0 0 -1 0 176)">
				<stop  offset="0" style="stop-color:#595959"/>
				<stop  offset="0.57" style="stop-color:#525252;stop-opacity:0.45"/>
				<stop  offset="1" style="stop-color:#4C4C4C;stop-opacity:0"/>
			</linearGradient>
			<path class="st8" d="M41.4,111.1v-3.4c0-1.2,0.9-2.1,2.1-2.1c0,0,0,0,0,0h20.2c0,0-11.2,0.4-16.1,2.1S41.4,111.1,41.4,111.1z"/>
			
				<linearGradient id="SVGID_8_" gradientUnits="userSpaceOnUse" x1="37.08" y1="59.275" x2="80.07" y2="59.275" gradientTransform="matrix(1 0 0 -1 0 176)">
				<stop  offset="0" style="stop-color:#4C4C4C"/>
				<stop  offset="0.92" style="stop-color:#212121"/>
				<stop  offset="1" style="stop-color:#000000"/>
			</linearGradient>
			<path class="st9" d="M80.1,118.6c0,1.3-1.1,2.4-2.4,2.4H41.2c-1.3,0-2.4-1.1-2.4-2.4v-3.8c0-1.3,1.1-2.4,2.4-2.4h36.5
				c1.3,0,2.4,1.1,2.4,2.4L80.1,118.6z"/>
			
				<linearGradient id="SVGID_9_" gradientUnits="userSpaceOnUse" x1="36.45" y1="60.44" x2="57.23" y2="60.44" gradientTransform="matrix(1 0 0 -1 0 176)">
				<stop  offset="0" style="stop-color:#595959"/>
				<stop  offset="0.57" style="stop-color:#525252;stop-opacity:0.45"/>
				<stop  offset="1" style="stop-color:#4C4C4C;stop-opacity:0"/>
			</linearGradient>
			<path class="st10" d="M38.8,118.7v-3.9c0-1.3,1.1-2.4,2.4-2.4h25c0,0-14.7,0.5-20.4,2.4S38.8,118.7,38.8,118.7z"/>
			
				<linearGradient id="SVGID_10_" gradientUnits="userSpaceOnUse" x1="33.24" y1="47.925" x2="83.6" y2="47.925" gradientTransform="matrix(1 0 0 -1 0 176)">
				<stop  offset="0" style="stop-color:#4C4C4C"/>
				<stop  offset="0.92" style="stop-color:#212121"/>
				<stop  offset="1" style="stop-color:#000000"/>
			</linearGradient>
			<path class="st11" d="M83.7,134.6c0,1.6-1.3,2.8-2.8,2.8H38.1c-1.6,0-2.8-1.3-2.8-2.8c0,0,0,0,0,0v-13.1c0-1.6,1.3-2.8,2.8-2.8
				c0,0,0,0,0,0h42.8c1.6,0,2.8,1.3,2.8,2.8L83.7,134.6z"/>
			
				<linearGradient id="SVGID_11_" gradientUnits="userSpaceOnUse" x1="32.73" y1="53.59" x2="56.25" y2="53.59" gradientTransform="matrix(1 0 0 -1 0 176)">
				<stop  offset="0" style="stop-color:#595959"/>
				<stop  offset="0.57" style="stop-color:#525252;stop-opacity:0.45"/>
				<stop  offset="1" style="stop-color:#4C4C4C;stop-opacity:0"/>
			</linearGradient>
			<path class="st12" d="M35.3,126.1v-4.6c0-1.6,1.3-2.8,2.8-2.8c0,0,0,0,0,0h28.2c0,0-16.1,0.6-22.7,2.9S35.3,126.1,35.3,126.1z"/>
		</g>
	</g>
</g>
</svg>
