<?xml version="1.0" encoding="utf-8"?>
<!-- Generator: Adobe Illustrator 21.0.2, SVG Export Plug-In . SVG Version: 6.00 Build 0)  -->
<svg version="1.1" id="Ebene_1" xmlns="http://www.w3.org/2000/svg" xmlns:xlink="http://www.w3.org/1999/xlink" x="0px" y="0px"
	 viewBox="0 0 121 175" style="enable-background:new 0 0 121 175;" xml:space="preserve">
<style type="text/css">
	.st0{opacity:0.7;}
	.st1{fill:url(#SVGID_1_);stroke:#000000;stroke-width:2;}
	.st2{fill:url(#SVGID_2_);stroke:#000000;stroke-width:2;}
	.st3{fill:url(#SVGID_3_);stroke:#000000;stroke-width:2;}
	.st4{opacity:0.6;fill:url(#SVGID_4_);stroke:#000000;stroke-width:2;enable-background:new    ;}
	.st5{fill:url(#SVGID_5_);stroke:#000000;stroke-width:2;}
	.st6{fill:url(#SVGID_6_);stroke:#000000;stroke-width:2;}
	.st7{opacity:0.6;fill:url(#SVGID_7_);stroke:#000000;stroke-width:2;enable-background:new    ;}
	.st8{fill:url(#SVGID_8_);stroke:#000000;stroke-width:2;}
	.st9{opacity:0.6;fill:url(#SVGID_9_);stroke:#000000;stroke-width:2;enable-background:new    ;}
	.st10{fill:url(#SVGID_10_);stroke:#000000;stroke-width:2;}
	.st11{opacity:0.6;fill:url(#SVGID_11_);stroke:#000000;stroke-width:2;enable-background:new    ;}
</style>
<title>Pawn</title>
<g>
	<g id="Ebene_2">
		<g id="Objects">
			<g class="st0">
				<image style="overflow:visible;enable-background:new    ;" width="121" height="175" xlink:href="26DCF5CC.png" >
				</image>
			</g>
			
				<linearGradient id="SVGID_1_" gradientUnits="userSpaceOnUse" x1="51.4317" y1="140.1211" x2="65.0417" y2="119.2011" gradientTransform="matrix(1 0 0 -1 0 176)">
				<stop  offset="0" style="stop-color:#FFFFFF"/>
				<stop  offset="0.16" style="stop-color:#FFFFFF"/>
				<stop  offset="0.68" style="stop-color:#CECECE"/>
				<stop  offset="0.89" style="stop-color:#B9B9B9"/>
				<stop  offset="1" style="stop-color:#A3A3A3"/>
			</linearGradient>
			<circle class="st1" cx="59.5" cy="48.3" r="12.5"/>
			
				<linearGradient id="SVGID_2_" gradientUnits="userSpaceOnUse" x1="44.86" y1="94.065" x2="68.58" y2="94.065" gradientTransform="matrix(1 0 0 -1 0 176)">
				<stop  offset="0" style="stop-color:#FFFFFF"/>
				<stop  offset="0.16" style="stop-color:#FFFFFF"/>
				<stop  offset="0.68" style="stop-color:#CECECE"/>
				<stop  offset="0.89" style="stop-color:#B9B9B9"/>
				<stop  offset="1" style="stop-color:#A3A3A3"/>
			</linearGradient>
			<polygon class="st2" points="72.1,104.8 46.8,104.8 52.3,59 66.7,59 			"/>
			
				<linearGradient id="SVGID_3_" gradientUnits="userSpaceOnUse" x1="42.54" y1="72.67" x2="75.06" y2="72.67" gradientTransform="matrix(1 0 0 -1 0 176)">
				<stop  offset="0" style="stop-color:#FFFFFF"/>
				<stop  offset="0.66" style="stop-color:#CECECE"/>
				<stop  offset="0.92" style="stop-color:#B9B9B9"/>
				<stop  offset="1" style="stop-color:#999999"/>
			</linearGradient>
			<path class="st3" d="M75.1,104.8c0,1-0.8,1.8-1.8,1.8c0,0,0,0,0,0H45.7c-1,0-1.8-0.8-1.8-1.8v-2.9c0-1,0.8-1.8,1.8-1.8h27.6
				c1,0,1.8,0.8,1.8,1.8L75.1,104.8z"/>
			
				<linearGradient id="SVGID_4_" gradientUnits="userSpaceOnUse" x1="42.08" y1="73.57" x2="57.13" y2="73.57" gradientTransform="matrix(1 0 0 -1 0 176)">
				<stop  offset="0" style="stop-color:#FFFFFF"/>
				<stop  offset="0.21" style="stop-color:#FFFFFF;stop-opacity:0.81"/>
				<stop  offset="0.69" style="stop-color:#FFFFFF;stop-opacity:0.32"/>
				<stop  offset="1" style="stop-color:#FFFFFF;stop-opacity:0"/>
			</linearGradient>
			<path class="st4" d="M43.8,104.8v-3c0-1,0.8-1.8,1.8-1.8h18c0,0-10.2,0.4-14.5,1.8S43.8,104.8,43.8,104.8z"/>
			
				<linearGradient id="SVGID_5_" gradientUnits="userSpaceOnUse" x1="43.65" y1="118.685" x2="69.34" y2="118.685" gradientTransform="matrix(1 0 0 -1 0 176)">
				<stop  offset="0" style="stop-color:#FFFFFF"/>
				<stop  offset="0.16" style="stop-color:#FFFFFF"/>
				<stop  offset="0.68" style="stop-color:#CECECE"/>
				<stop  offset="0.89" style="stop-color:#B9B9B9"/>
				<stop  offset="1" style="stop-color:#A3A3A3"/>
			</linearGradient>
			<path class="st5" d="M73.2,57.3c0,0.9-0.8,1.7-1.7,1.7h-24c-0.9,0-1.7-0.8-1.7-1.7l0,0c0-0.9,0.8-1.7,1.7-1.7h24
				C72.4,55.6,73.2,56.4,73.2,57.3L73.2,57.3L73.2,57.3z"/>
			
				<linearGradient id="SVGID_6_" gradientUnits="userSpaceOnUse" x1="39.94" y1="66.65" x2="77.45" y2="66.65" gradientTransform="matrix(1 0 0 -1 0 176)">
				<stop  offset="0" style="stop-color:#FFFFFF"/>
				<stop  offset="0.66" style="stop-color:#CECECE"/>
				<stop  offset="0.92" style="stop-color:#B9B9B9"/>
				<stop  offset="1" style="stop-color:#999999"/>
			</linearGradient>
			<path class="st6" d="M77.5,111c0,1.2-1,2.1-2.1,2.1c0,0,0,0,0,0H43.6c-1.2,0-2.1-0.9-2.1-2.1v-3.3c0-1.2,0.9-2.1,2.1-2.1h31.8
				c1.2,0,2.1,0.9,2.1,2.1c0,0,0,0,0,0V111z"/>
			
				<linearGradient id="SVGID_7_" gradientUnits="userSpaceOnUse" x1="39.58" y1="67.64" x2="55.28" y2="67.64" gradientTransform="matrix(1 0 0 -1 0 176)">
				<stop  offset="0" style="stop-color:#FFFFFF"/>
				<stop  offset="0.21" style="stop-color:#FFFFFF;stop-opacity:0.81"/>
				<stop  offset="0.69" style="stop-color:#FFFFFF;stop-opacity:0.32"/>
				<stop  offset="1" style="stop-color:#FFFFFF;stop-opacity:0"/>
			</linearGradient>
			<path class="st7" d="M41.5,111.1v-3.4c0-1.2,0.9-2.1,2.1-2.1h20.2c0,0-11.2,0.4-16.1,2.1S41.5,111.1,41.5,111.1z"/>
			
				<linearGradient id="SVGID_8_" gradientUnits="userSpaceOnUse" x1="37.11" y1="59.315" x2="80.05" y2="59.315" gradientTransform="matrix(1 0 0 -1 0 176)">
				<stop  offset="0" style="stop-color:#FFFFFF"/>
				<stop  offset="0.66" style="stop-color:#CECECE"/>
				<stop  offset="0.92" style="stop-color:#B9B9B9"/>
				<stop  offset="1" style="stop-color:#999999"/>
			</linearGradient>
			<path class="st8" d="M80.1,118.6c0,1.3-1.1,2.4-2.4,2.4H41.3c-1.3,0-2.4-1.1-2.4-2.4c0,0,0,0,0,0v-3.8c0-1.3,1.1-2.4,2.4-2.4
				h36.4c1.3,0,2.4,1.1,2.4,2.4V118.6z"/>
			
				<linearGradient id="SVGID_9_" gradientUnits="userSpaceOnUse" x1="36.47" y1="60.48" x2="57.23" y2="60.48" gradientTransform="matrix(1 0 0 -1 0 176)">
				<stop  offset="0" style="stop-color:#FFFFFF"/>
				<stop  offset="0.21" style="stop-color:#FFFFFF;stop-opacity:0.81"/>
				<stop  offset="0.69" style="stop-color:#FFFFFF;stop-opacity:0.32"/>
				<stop  offset="1" style="stop-color:#FFFFFF;stop-opacity:0"/>
			</linearGradient>
			<path class="st9" d="M38.8,118.7v-3.9c0-1.3,1.1-2.4,2.4-2.4h25c0,0-14.7,0.5-20.3,2.4S38.8,118.7,38.8,118.7z"/>
			
				<linearGradient id="SVGID_10_" gradientUnits="userSpaceOnUse" x1="33.27" y1="47.98" x2="83.58" y2="47.98" gradientTransform="matrix(1 0 0 -1 0 176)">
				<stop  offset="0" style="stop-color:#FFFFFF"/>
				<stop  offset="0.66" style="stop-color:#CECECE"/>
				<stop  offset="0.92" style="stop-color:#B9B9B9"/>
				<stop  offset="1" style="stop-color:#999999"/>
			</linearGradient>
			<path class="st10" d="M83.7,134.6c0,1.6-1.3,2.8-2.8,2.8H38.1c-1.6,0-2.8-1.3-2.8-2.8v-13.1c0-1.6,1.3-2.8,2.8-2.8h42.7
				c1.6,0,2.8,1.3,2.8,2.8V134.6z"/>
			
				<linearGradient id="SVGID_11_" gradientUnits="userSpaceOnUse" x1="32.76" y1="53.635" x2="56.25" y2="53.635" gradientTransform="matrix(1 0 0 -1 0 176)">
				<stop  offset="0" style="stop-color:#FFFFFF"/>
				<stop  offset="0.21" style="stop-color:#FFFFFF;stop-opacity:0.81"/>
				<stop  offset="0.69" style="stop-color:#FFFFFF;stop-opacity:0.32"/>
				<stop  offset="1" style="stop-color:#FFFFFF;stop-opacity:0"/>
			</linearGradient>
			<path class="st11" d="M35.3,126.1v-4.6c0-1.6,1.3-2.8,2.8-2.8h28.1c0,0-16.1,0.6-22.7,2.8S35.3,126.1,35.3,126.1z"/>
		</g>
	</g>
</g>
</svg>
