<?xml version="1.0" encoding="utf-8"?>
<!-- Generator: Adobe Illustrator 21.0.2, SVG Export Plug-In . SVG Version: 6.00 Build 0)  -->
<svg version="1.1" id="Ebene_1" xmlns="http://www.w3.org/2000/svg" xmlns:xlink="http://www.w3.org/1999/xlink" x="0px" y="0px"
	 viewBox="0 0 132 210" style="enable-background:new 0 0 132 210;" xml:space="preserve">
<style type="text/css">
	.st0{opacity:0.7;}
	.st1{fill:url(#SVGID_1_);stroke:#FFFFFF;stroke-width:2;}
	.st2{fill:url(#SVGID_2_);stroke:#FFFFFF;stroke-width:2;}
	.st3{fill:url(#SVGID_3_);stroke:#FFFFFF;stroke-width:2;}
	.st4{opacity:0.6;fill:url(#SVGID_4_);stroke:#FFFFFF;stroke-width:2;enable-background:new    ;}
	.st5{fill:url(#SVGID_5_);stroke:#FFFFFF;stroke-width:2;}
	.st6{fill:url(#SVGID_6_);stroke:#FFFFFF;stroke-width:2;}
	.st7{opacity:0.6;fill:url(#SVGID_7_);stroke:#FFFFFF;stroke-width:2;enable-background:new    ;}
	.st8{fill:url(#SVGID_8_);stroke:#FFFFFF;stroke-width:2;}
	.st9{opacity:0.6;fill:url(#SVGID_9_);stroke:#FFFFFF;stroke-width:2;enable-background:new    ;}
	.st10{fill:url(#SVGID_10_);stroke:#FFFFFF;stroke-width:2;}
	.st11{opacity:0.6;fill:url(#SVGID_11_);stroke:#FFFFFF;stroke-width:2;enable-background:new    ;}
</style>
<title>Queen</title>
<g>
	<g id="Ebene_2">
		<g id="Objects">
			<g class="st0">
				<image style="overflow:visible;enable-background:new    ;" width="132" height="210" xlink:href="19EFA605.png" >
				</image>
			</g>
			
				<linearGradient id="SVGID_1_" gradientUnits="userSpaceOnUse" x1="40.3389" y1="157.2383" x2="88.7976" y2="157.2383" gradientTransform="matrix(1 0 0 -1 0 212)">
				<stop  offset="0" style="stop-color:#4C4C4C"/>
				<stop  offset="0.92" style="stop-color:#212121"/>
				<stop  offset="1" style="stop-color:#000000"/>
			</linearGradient>
			<path class="st1" d="M88.3,46.5c-2.3-0.5-5.4,2.7-7.8,2.6s-2.9-2.2-5.8-3.8c-1.7-0.9-3.5-1.7-5.4-2.4c1.3-2.6,0.2-5.6-2.4-6.9
				c-2.6-1.3-5.6-0.2-6.9,2.4c-0.7,1.4-0.7,3.1,0,4.5c-1.8,0.7-3.6,1.5-5.4,2.4c-3,1.6-3.5,3.7-5.8,3.8s-5.5-3.1-7.8-2.6
				s3.3,7.7,5.8,13.3s3.3,13,3.3,13L64.6,74l14.6-1.2c0,0,0.7-7.4,3.3-13S90.5,47,88.3,46.5z"/>
			
				<linearGradient id="SVGID_2_" gradientUnits="userSpaceOnUse" x1="46.63" y1="107.85" x2="75.75" y2="107.85" gradientTransform="matrix(1 0 0 -1 0 212)">
				<stop  offset="0" style="stop-color:#707070"/>
				<stop  offset="0.22" style="stop-color:#4C4C4C"/>
				<stop  offset="0.88" style="stop-color:#212121"/>
				<stop  offset="1" style="stop-color:#0F0F0F"/>
			</linearGradient>
			<polygon class="st2" points="80.1,132.3 49.1,132.3 55.7,76 73.4,76 			"/>
			
				<linearGradient id="SVGID_3_" gradientUnits="userSpaceOnUse" x1="43.78" y1="81.585" x2="83.7" y2="81.585" gradientTransform="matrix(1 0 0 -1 0 212)">
				<stop  offset="0" style="stop-color:#4C4C4C"/>
				<stop  offset="0.92" style="stop-color:#212121"/>
				<stop  offset="1" style="stop-color:#000000"/>
			</linearGradient>
			<path class="st3" d="M83.8,132.2c0,1.2-1,2.2-2.2,2.2H47.6c-1.2,0-2.2-1-2.2-2.2c0,0,0,0,0,0v-3.6c0-1.2,1-2.2,2.2-2.2h33.9
				c1.2,0,2.2,1,2.2,2.2L83.8,132.2z"/>
			
				<linearGradient id="SVGID_4_" gradientUnits="userSpaceOnUse" x1="43.22" y1="82.66" x2="61.69" y2="82.66" gradientTransform="matrix(1 0 0 -1 0 212)">
				<stop  offset="0" style="stop-color:#595959"/>
				<stop  offset="0.57" style="stop-color:#525252;stop-opacity:0.45"/>
				<stop  offset="1" style="stop-color:#4C4C4C;stop-opacity:0"/>
			</linearGradient>
			<path class="st4" d="M45.4,132.3v-3.6c0-1.2,1-2.2,2.2-2.2h22.1c0,0-12.5,0.5-17.8,2.3C46.7,130.5,45.4,132.3,45.4,132.3z"/>
			
				<linearGradient id="SVGID_5_" gradientUnits="userSpaceOnUse" x1="45.14" y1="138.035" x2="76.68" y2="138.035" gradientTransform="matrix(1 0 0 -1 0 212)">
				<stop  offset="0" style="stop-color:#4C4C4C"/>
				<stop  offset="0.92" style="stop-color:#212121"/>
				<stop  offset="1" style="stop-color:#000000"/>
			</linearGradient>
			<path class="st5" d="M81.4,74c0,1.1-1,2-2.1,2H49.8c-1.1,0-2-0.9-2.1-2l0,0c0-1.1,0.9-2.1,2.1-2.1h29.5
				C80.5,71.9,81.4,72.9,81.4,74z"/>
			
				<linearGradient id="SVGID_6_" gradientUnits="userSpaceOnUse" x1="40.59" y1="74.17" x2="86.63" y2="74.17" gradientTransform="matrix(1 0 0 -1 0 212)">
				<stop  offset="0" style="stop-color:#4C4C4C"/>
				<stop  offset="0.92" style="stop-color:#212121"/>
				<stop  offset="1" style="stop-color:#000000"/>
			</linearGradient>
			<path class="st6" d="M86.7,139.9c0,1.4-1.2,2.6-2.6,2.6c0,0,0,0,0,0H45c-1.4,0-2.6-1.1-2.6-2.6c0,0,0,0,0,0v-4.1
				c0-1.4,1.2-2.6,2.6-2.6h39.1c1.4,0,2.6,1.1,2.6,2.6c0,0,0,0,0,0V139.9z"/>
			
				<linearGradient id="SVGID_7_" gradientUnits="userSpaceOnUse" x1="40.15" y1="75.395" x2="59.42" y2="75.395" gradientTransform="matrix(1 0 0 -1 0 212)">
				<stop  offset="0" style="stop-color:#595959"/>
				<stop  offset="0.57" style="stop-color:#525252;stop-opacity:0.45"/>
				<stop  offset="1" style="stop-color:#4C4C4C;stop-opacity:0"/>
			</linearGradient>
			<path class="st7" d="M42.5,140v-4.2c0-1.4,1.1-2.6,2.5-2.6h24.8c0,0-13.7,0.5-19.7,2.6S42.5,140,42.5,140z"/>
			
				<linearGradient id="SVGID_8_" gradientUnits="userSpaceOnUse" x1="37.12" y1="65.205" x2="89.83" y2="65.205" gradientTransform="matrix(1 0 0 -1 0 212)">
				<stop  offset="0" style="stop-color:#4C4C4C"/>
				<stop  offset="0.92" style="stop-color:#212121"/>
				<stop  offset="1" style="stop-color:#000000"/>
			</linearGradient>
			<path class="st8" d="M89.9,149.1c0,1.6-1.4,2.9-3,2.9H42.2c-1.6,0-3-1.3-3-2.9v-4.7c0-1.6,1.4-3,3-2.9h44.7c1.6,0,3,1.3,3,2.9
				L89.9,149.1z"/>
			
				<linearGradient id="SVGID_9_" gradientUnits="userSpaceOnUse" x1="36.33" y1="66.62" x2="61.81" y2="66.62" gradientTransform="matrix(1 0 0 -1 0 212)">
				<stop  offset="0" style="stop-color:#595959"/>
				<stop  offset="0.57" style="stop-color:#525252;stop-opacity:0.45"/>
				<stop  offset="1" style="stop-color:#4C4C4C;stop-opacity:0"/>
			</linearGradient>
			<path class="st9" d="M39.3,149.3v-4.8c0-1.6,1.4-3,3-2.9h30.7c0,0-18,0.6-25,3S39.3,149.3,39.3,149.3z"/>
			
				<linearGradient id="SVGID_10_" gradientUnits="userSpaceOnUse" x1="32.41" y1="51.255" x2="94.16" y2="51.255" gradientTransform="matrix(1 0 0 -1 0 212)">
				<stop  offset="0" style="stop-color:#4C4C4C"/>
				<stop  offset="0.92" style="stop-color:#212121"/>
				<stop  offset="1" style="stop-color:#000000"/>
			</linearGradient>
			<path class="st10" d="M94.3,168.8c0,1.9-1.6,3.4-3.5,3.4H38.4c-1.9,0-3.5-1.5-3.5-3.4c0,0,0,0,0,0v-16c0-1.9,1.5-3.5,3.5-3.5h0
				h52.4c1.9,0,3.5,1.6,3.5,3.5L94.3,168.8z"/>
			
				<linearGradient id="SVGID_11_" gradientUnits="userSpaceOnUse" x1="31.78" y1="58.225" x2="60.61" y2="58.225" gradientTransform="matrix(1 0 0 -1 0 212)">
				<stop  offset="0" style="stop-color:#595959"/>
				<stop  offset="0.57" style="stop-color:#525252;stop-opacity:0.45"/>
				<stop  offset="1" style="stop-color:#4C4C4C;stop-opacity:0"/>
			</linearGradient>
			<path class="st11" d="M34.9,158.3v-5.6c0-1.9,1.5-3.5,3.5-3.5h0h34.5c0,0-19.7,0.7-27.8,3.5S34.9,158.3,34.9,158.3z"/>
		</g>
	</g>
</g>
</svg>
