<?xml version="1.0" encoding="utf-8"?>
<!-- Generator: Adobe Illustrator 21.0.2, SVG Export Plug-In . SVG Version: 6.00 Build 0)  -->
<svg version="1.1" id="Ebene_1" xmlns="http://www.w3.org/2000/svg" xmlns:xlink="http://www.w3.org/1999/xlink" x="0px" y="0px"
	 viewBox="0 0 132 210" style="enable-background:new 0 0 132 210;" xml:space="preserve">
<style type="text/css">
	.st0{opacity:0.7;}
	.st1{fill:url(#SVGID_1_);stroke:#000000;stroke-width:2;}
	.st2{fill:url(#SVGID_2_);stroke:#000000;stroke-width:2;}
	.st3{fill:url(#SVGID_3_);stroke:#000000;stroke-width:2;}
	.st4{opacity:0.6;fill:url(#SVGID_4_);stroke:#000000;stroke-width:2;enable-background:new    ;}
	.st5{fill:url(#SVGID_5_);stroke:#000000;stroke-width:2;}
	.st6{fill:url(#SVGID_6_);stroke:#000000;stroke-width:2;}
	.st7{opacity:0.6;fill:url(#SVGID_7_);stroke:#000000;stroke-width:2;enable-background:new    ;}
	.st8{fill:url(#SVGID_8_);stroke:#000000;stroke-width:2;}
	.st9{opacity:0.6;fill:url(#SVGID_9_);stroke:#000000;stroke-width:2;enable-background:new    ;}
	.st10{fill:url(#SVGID_10_);stroke:#000000;stroke-width:2;}
	.st11{opacity:0.6;fill:url(#SVGID_11_);stroke:#000000;stroke-width:2;enable-background:new    ;}
</style>
<title>Queen_1</title>
<g>
	<g id="Ebene_2">
		<g id="Objects">
			<g class="st0">
				<image style="overflow:visible;enable-background:new    ;" width="132" height="210" xlink:href="BA9B1687.png" >
				</image>
			</g>
			
				<linearGradient id="SVGID_1_" gradientUnits="userSpaceOnUse" x1="40.4651" y1="157.501" x2="88.6857" y2="157.501" gradientTransform="matrix(1 0 0 -1 0 212)">
				<stop  offset="0" style="stop-color:#FFFFFF"/>
				<stop  offset="0.66" style="stop-color:#CECECE"/>
				<stop  offset="0.92" style="stop-color:#B9B9B9"/>
				<stop  offset="1" style="stop-color:#999999"/>
			</linearGradient>
			<path class="st1" d="M88.2,46.3c-2.3-0.5-5.4,2.7-7.8,2.6s-2.9-2.2-5.8-3.8c-1.7-0.9-3.5-1.7-5.4-2.4c1.3-2.5,0.2-5.6-2.3-6.9
				c-2.5-1.3-5.6-0.2-6.9,2.3c-0.7,1.4-0.7,3.1,0,4.5c-1.8,0.7-3.6,1.5-5.4,2.4c-3,1.6-3.5,3.7-5.8,3.8s-5.5-3-7.8-2.6
				s3.3,7.7,5.8,13.2s3.3,12.9,3.3,12.9l14.5,1.2l14.5-1.2c0,0,0.7-7.4,3.3-12.9S90.4,46.8,88.2,46.3z"/>
			
				<linearGradient id="SVGID_2_" gradientUnits="userSpaceOnUse" x1="46.72" y1="107.57" x2="75.7" y2="107.57" gradientTransform="matrix(1 0 0 -1 0 212)">
				<stop  offset="0" style="stop-color:#FFFFFF"/>
				<stop  offset="0.16" style="stop-color:#FFFFFF"/>
				<stop  offset="0.68" style="stop-color:#CECECE"/>
				<stop  offset="0.89" style="stop-color:#B9B9B9"/>
				<stop  offset="1" style="stop-color:#A3A3A3"/>
			</linearGradient>
			<polygon class="st2" points="80,132.4 49.1,132.4 55.8,76.4 73.4,76.4 			"/>
			
				<linearGradient id="SVGID_3_" gradientUnits="userSpaceOnUse" x1="43.88" y1="81.435" x2="83.61" y2="81.435" gradientTransform="matrix(1 0 0 -1 0 212)">
				<stop  offset="0" style="stop-color:#FFFFFF"/>
				<stop  offset="0.66" style="stop-color:#CECECE"/>
				<stop  offset="0.92" style="stop-color:#B9B9B9"/>
				<stop  offset="1" style="stop-color:#999999"/>
			</linearGradient>
			<path class="st3" d="M83.7,132.3c0,1.2-1,2.2-2.2,2.2H47.7c-1.2,0-2.2-1-2.2-2.2c0,0,0,0,0,0v-3.5c0-1.2,1-2.2,2.2-2.2h33.7
				c1.2,0,2.2,1,2.2,2.2L83.7,132.3z"/>
			
				<linearGradient id="SVGID_4_" gradientUnits="userSpaceOnUse" x1="43.33" y1="82.505" x2="61.71" y2="82.505" gradientTransform="matrix(1 0 0 -1 0 212)">
				<stop  offset="0" style="stop-color:#FFFFFF"/>
				<stop  offset="0.21" style="stop-color:#FFFFFF;stop-opacity:0.81"/>
				<stop  offset="0.69" style="stop-color:#FFFFFF;stop-opacity:0.32"/>
				<stop  offset="1" style="stop-color:#FFFFFF;stop-opacity:0"/>
			</linearGradient>
			<path class="st4" d="M45.5,132.4v-3.6c0-1.2,1-2.2,2.2-2.2h22c0,0-12.5,0.4-17.7,2.3S45.5,132.4,45.5,132.4z"/>
			
				<linearGradient id="SVGID_5_" gradientUnits="userSpaceOnUse" x1="45.24" y1="137.6" x2="76.62" y2="137.6" gradientTransform="matrix(1 0 0 -1 0 212)">
				<stop  offset="0" style="stop-color:#FFFFFF"/>
				<stop  offset="0.16" style="stop-color:#FFFFFF"/>
				<stop  offset="0.68" style="stop-color:#CECECE"/>
				<stop  offset="0.89" style="stop-color:#B9B9B9"/>
				<stop  offset="1" style="stop-color:#A3A3A3"/>
			</linearGradient>
			<path class="st5" d="M81.3,74.4c0,1.1-0.9,2.1-2.1,2.1H49.9c-1.1,0-2.1-0.9-2.1-2.1l0,0c0-1.1,0.9-2.1,2.1-2.1h29.3
				C80.4,72.3,81.3,73.3,81.3,74.4L81.3,74.4z"/>
			
				<linearGradient id="SVGID_6_" gradientUnits="userSpaceOnUse" x1="40.71" y1="74.0599" x2="86.53" y2="74.0599" gradientTransform="matrix(1 0 0 -1 0 212)">
				<stop  offset="0" style="stop-color:#FFFFFF"/>
				<stop  offset="0.66" style="stop-color:#CECECE"/>
				<stop  offset="0.92" style="stop-color:#B9B9B9"/>
				<stop  offset="1" style="stop-color:#999999"/>
			</linearGradient>
			<path class="st6" d="M86.6,140c0,1.4-1.2,2.6-2.6,2.5c0,0,0,0,0,0H45.1c-1.4,0-2.6-1.1-2.6-2.5v-4.1c0-1.4,1.2-2.6,2.6-2.6H84
				c1.4,0,2.6,1.1,2.6,2.6c0,0,0,0,0,0L86.6,140z"/>
			
				<linearGradient id="SVGID_7_" gradientUnits="userSpaceOnUse" x1="40.27" y1="75.295" x2="59.45" y2="75.295" gradientTransform="matrix(1 0 0 -1 0 212)">
				<stop  offset="0" style="stop-color:#FFFFFF"/>
				<stop  offset="0.21" style="stop-color:#FFFFFF;stop-opacity:0.81"/>
				<stop  offset="0.69" style="stop-color:#FFFFFF;stop-opacity:0.32"/>
				<stop  offset="1" style="stop-color:#FFFFFF;stop-opacity:0"/>
			</linearGradient>
			<path class="st7" d="M42.6,140.1v-4.2c0-1.4,1.2-2.6,2.6-2.6h24.6c0,0-13.6,0.5-19.6,2.6S42.6,140.1,42.6,140.1z"/>
			
				<linearGradient id="SVGID_8_" gradientUnits="userSpaceOnUse" x1="37.26" y1="65.125" x2="89.7" y2="65.125" gradientTransform="matrix(1 0 0 -1 0 212)">
				<stop  offset="0" style="stop-color:#FFFFFF"/>
				<stop  offset="0.66" style="stop-color:#CECECE"/>
				<stop  offset="0.92" style="stop-color:#B9B9B9"/>
				<stop  offset="1" style="stop-color:#999999"/>
			</linearGradient>
			<path class="st8" d="M89.8,149.2c0,1.6-1.3,2.9-2.9,2.9c0,0,0,0,0,0H42.3c-1.6,0-2.9-1.3-2.9-2.9c0,0,0,0,0,0v-4.7
				c0-1.6,1.3-2.9,2.9-2.9h44.5c1.6,0,2.9,1.3,2.9,2.9c0,0,0,0,0,0V149.2z"/>
			
				<linearGradient id="SVGID_9_" gradientUnits="userSpaceOnUse" x1="36.48" y1="66.545" x2="61.83" y2="66.545" gradientTransform="matrix(1 0 0 -1 0 212)">
				<stop  offset="0" style="stop-color:#FFFFFF"/>
				<stop  offset="0.21" style="stop-color:#FFFFFF;stop-opacity:0.81"/>
				<stop  offset="0.69" style="stop-color:#FFFFFF;stop-opacity:0.32"/>
				<stop  offset="1" style="stop-color:#FFFFFF;stop-opacity:0"/>
			</linearGradient>
			<path class="st9" d="M39.4,149.3v-4.8c0-1.6,1.3-2.9,2.9-2.9h30.5c0,0-18,0.6-24.8,3S39.4,149.3,39.4,149.3z"/>
			
				<linearGradient id="SVGID_10_" gradientUnits="userSpaceOnUse" x1="32.57" y1="51.295" x2="94.01" y2="51.295" gradientTransform="matrix(1 0 0 -1 0 212)">
				<stop  offset="0" style="stop-color:#FFFFFF"/>
				<stop  offset="0.66" style="stop-color:#CECECE"/>
				<stop  offset="0.92" style="stop-color:#B9B9B9"/>
				<stop  offset="1" style="stop-color:#999999"/>
			</linearGradient>
			<path class="st10" d="M94.1,168.7c0,1.9-1.6,3.4-3.4,3.4c0,0,0,0,0,0H38.5c-1.9,0-3.4-1.5-3.5-3.4v0v-16c0-1.9,1.5-3.4,3.4-3.4
				c0,0,0,0,0,0h52.2c1.9,0,3.4,1.5,3.4,3.4L94.1,168.7z"/>
			
				<linearGradient id="SVGID_11_" gradientUnits="userSpaceOnUse" x1="31.95" y1="58.19" x2="60.64" y2="58.19" gradientTransform="matrix(1 0 0 -1 0 212)">
				<stop  offset="0" style="stop-color:#FFFFFF"/>
				<stop  offset="0.21" style="stop-color:#FFFFFF;stop-opacity:0.81"/>
				<stop  offset="0.69" style="stop-color:#FFFFFF;stop-opacity:0.32"/>
				<stop  offset="1" style="stop-color:#FFFFFF;stop-opacity:0"/>
			</linearGradient>
			<path class="st11" d="M35,158.3v-5.6c0-1.9,1.5-3.4,3.4-3.4c0,0,0,0,0,0h34.4c0,0-19.6,0.7-27.7,3.5S35,158.3,35,158.3z"/>
		</g>
	</g>
</g>
</svg>
