<?xml version="1.0" encoding="utf-8"?>
<!-- Generator: Adobe Illustrator 21.0.2, SVG Export Plug-In . SVG Version: 6.00 Build 0)  -->
<svg version="1.1" id="Ebene_1" xmlns="http://www.w3.org/2000/svg" xmlns:xlink="http://www.w3.org/1999/xlink" x="0px" y="0px"
	 viewBox="0 0 127 181" style="enable-background:new 0 0 127 181;" xml:space="preserve">
<style type="text/css">
	.st0{opacity:0.7;}
	.st1{fill:url(#SVGID_1_);stroke:#FFFFFF;stroke-miterlimit:10;}
	.st2{fill:#333333;stroke:#FFFFFF;stroke-miterlimit:10;}
	.st3{fill:url(#SVGID_2_);stroke:#FFFFFF;stroke-miterlimit:10;}
	.st4{fill:url(#SVGID_3_);stroke:#FFFFFF;stroke-miterlimit:10;}
	.st5{opacity:0.6;fill:url(#SVGID_4_);stroke:#FFFFFF;stroke-miterlimit:10;enable-background:new    ;}
	.st6{fill:url(#SVGID_5_);stroke:#FFFFFF;stroke-miterlimit:10;}
	.st7{fill:url(#SVGID_6_);stroke:#FFFFFF;stroke-miterlimit:10;}
	.st8{opacity:0.6;fill:url(#SVGID_7_);stroke:#FFFFFF;stroke-miterlimit:10;enable-background:new    ;}
	.st9{fill:url(#SVGID_8_);stroke:#FFFFFF;stroke-miterlimit:10;}
	.st10{opacity:0.6;fill:url(#SVGID_9_);stroke:#FFFFFF;stroke-miterlimit:10;enable-background:new    ;}
	.st11{fill:url(#SVGID_10_);stroke:#FFFFFF;stroke-miterlimit:10;}
	.st12{opacity:0.6;fill:url(#SVGID_11_);stroke:#FFFFFF;stroke-miterlimit:10;enable-background:new    ;}
</style>
<title>Element 2</title>
<g>
	<g id="Ebene_2">
		<g id="Objects">
			<g class="st0">
				<image style="overflow:visible;enable-background:new    ;" width="127" height="181" xlink:href="8203400C.png" >
				</image>
			</g>
			
				<linearGradient id="SVGID_1_" gradientUnits="userSpaceOnUse" x1="40.83" y1="137.095" x2="84.18" y2="137.095" gradientTransform="matrix(1 0 0 -1 0 182)">
				<stop  offset="0" style="stop-color:#4C4C4C"/>
				<stop  offset="0.92" style="stop-color:#212121"/>
				<stop  offset="1" style="stop-color:#000000"/>
			</linearGradient>
			<polygon class="st1" points="76.3,35.4 74.3,41.8 69.4,41.8 70.9,35.4 63,35.4 62,35.4 54.1,35.4 55.6,41.8 50.8,41.8 48.7,35.4 
				40.8,35.4 50.6,54.4 62,54.4 63,54.4 74.4,54.4 84.2,35.4 			"/>
			<polygon class="st2" points="40.9,123.8 40.9,123.8 40.9,123.8 			"/>
			
				<linearGradient id="SVGID_2_" gradientUnits="userSpaceOnUse" x1="46.36" y1="99.9" x2="72.56" y2="99.9" gradientTransform="matrix(1 0 0 -1 0 182)">
				<stop  offset="0" style="stop-color:#707070"/>
				<stop  offset="0.22" style="stop-color:#4C4C4C"/>
				<stop  offset="0.88" style="stop-color:#212121"/>
				<stop  offset="1" style="stop-color:#0F0F0F"/>
			</linearGradient>
			<polygon class="st3" points="76.5,107.4 48.5,107.4 54.6,56.8 70.5,56.8 			"/>
			
				<linearGradient id="SVGID_3_" gradientUnits="userSpaceOnUse" x1="43.8" y1="76.27" x2="79.72" y2="76.27" gradientTransform="matrix(1 0 0 -1 0 182)">
				<stop  offset="0" style="stop-color:#4C4C4C"/>
				<stop  offset="0.92" style="stop-color:#212121"/>
				<stop  offset="1" style="stop-color:#000000"/>
			</linearGradient>
			<path class="st4" d="M79.8,107.3c0,1.1-0.9,2-2,2H47.3c-1.1,0-2-0.9-2-2v-3.2c0-1.1,0.9-2,2-2h30.5c1.1,0,2,0.9,2,2L79.8,107.3z"
				/>
			
				<linearGradient id="SVGID_4_" gradientUnits="userSpaceOnUse" x1="43.29" y1="77.23" x2="59.91" y2="77.23" gradientTransform="matrix(1 0 0 -1 0 182)">
				<stop  offset="0" style="stop-color:#595959"/>
				<stop  offset="0.57" style="stop-color:#525252;stop-opacity:0.45"/>
				<stop  offset="1" style="stop-color:#4C4C4C;stop-opacity:0"/>
			</linearGradient>
			<path class="st5" d="M45.3,107.4v-3.3c0-1.1,0.9-2,2-2h19.9c0,0-11.3,0.4-16,2S45.3,107.4,45.3,107.4z"/>
			
				<linearGradient id="SVGID_5_" gradientUnits="userSpaceOnUse" x1="45.03" y1="127.065" x2="73.4" y2="127.065" gradientTransform="matrix(1 0 0 -1 0 182)">
				<stop  offset="0" style="stop-color:#4C4C4C"/>
				<stop  offset="0.92" style="stop-color:#212121"/>
				<stop  offset="1" style="stop-color:#000000"/>
			</linearGradient>
			<path class="st6" d="M77.6,54.9c0,1-0.8,1.9-1.9,1.9c0,0,0,0,0,0H49.3c-1,0-1.9-0.8-1.9-1.8c0,0,0,0,0,0l0,0c0-1,0.8-1.9,1.8-1.9
				c0,0,0,0,0,0h26.5C76.8,53.1,77.6,53.9,77.6,54.9C77.6,54.9,77.6,54.9,77.6,54.9L77.6,54.9z"/>
			
				<linearGradient id="SVGID_6_" gradientUnits="userSpaceOnUse" x1="40.93" y1="69.595" x2="82.36" y2="69.595" gradientTransform="matrix(1 0 0 -1 0 182)">
				<stop  offset="0" style="stop-color:#4C4C4C"/>
				<stop  offset="0.92" style="stop-color:#212121"/>
				<stop  offset="1" style="stop-color:#000000"/>
			</linearGradient>
			<path class="st7" d="M82.4,114.3c0,1.3-1,2.3-2.3,2.3c0,0,0,0,0,0H44.9c-1.3,0-2.3-1-2.3-2.3v-3.7c0-1.3,1-2.3,2.3-2.3h35.2
				c1.3,0,2.3,1,2.3,2.3c0,0,0,0,0,0V114.3z"/>
			
				<linearGradient id="SVGID_7_" gradientUnits="userSpaceOnUse" x1="40.53" y1="70.72" x2="57.87" y2="70.72" gradientTransform="matrix(1 0 0 -1 0 182)">
				<stop  offset="0" style="stop-color:#595959"/>
				<stop  offset="0.57" style="stop-color:#525252;stop-opacity:0.45"/>
				<stop  offset="1" style="stop-color:#4C4C4C;stop-opacity:0"/>
			</linearGradient>
			<path class="st8" d="M42.6,114.3v-3.8c0-1.3,1-2.3,2.3-2.3h22.3c0,0-12.3,0.5-17.8,2.3S42.6,114.3,42.6,114.3z"/>
			
				<linearGradient id="SVGID_8_" gradientUnits="userSpaceOnUse" x1="37.8" y1="61.525" x2="85.23" y2="61.525" gradientTransform="matrix(1 0 0 -1 0 182)">
				<stop  offset="0" style="stop-color:#4C4C4C"/>
				<stop  offset="0.92" style="stop-color:#212121"/>
				<stop  offset="1" style="stop-color:#000000"/>
			</linearGradient>
			<path class="st9" d="M85.3,122.6c0,1.5-1.2,2.7-2.6,2.7c0,0,0,0,0,0H42.4c-1.5,0-2.7-1.2-2.7-2.6c0,0,0,0,0,0v-4.2
				c0-1.5,1.2-2.7,2.7-2.7h40.2c1.5,0,2.7,1.2,2.7,2.6c0,0,0,0,0,0L85.3,122.6z"/>
			
				<linearGradient id="SVGID_9_" gradientUnits="userSpaceOnUse" x1="37.1" y1="62.81" x2="60.03" y2="62.81" gradientTransform="matrix(1 0 0 -1 0 182)">
				<stop  offset="0" style="stop-color:#595959"/>
				<stop  offset="0.57" style="stop-color:#525252;stop-opacity:0.45"/>
				<stop  offset="1" style="stop-color:#4C4C4C;stop-opacity:0"/>
			</linearGradient>
			<path class="st10" d="M39.7,122.7v-4.3c0-1.5,1.2-2.7,2.7-2.7H70c0,0-16.2,0.6-22.5,2.7S39.7,122.7,39.7,122.7z"/>
			
				<linearGradient id="SVGID_10_" gradientUnits="userSpaceOnUse" x1="33.56" y1="49" x2="89.13" y2="49" gradientTransform="matrix(1 0 0 -1 0 182)">
				<stop  offset="0" style="stop-color:#4C4C4C"/>
				<stop  offset="0.92" style="stop-color:#212121"/>
				<stop  offset="1" style="stop-color:#000000"/>
			</linearGradient>
			<path class="st11" d="M89.2,140.2c0,1.7-1.4,3.1-3.1,3.1c0,0,0,0,0,0H38.9c-1.7,0-3.1-1.4-3.1-3.1c0,0,0,0,0,0v-14.4
				c0-1.7,1.4-3.1,3.1-3.1c0,0,0,0,0,0h47.2c1.7,0,3.1,1.4,3.1,3.1V140.2z"/>
			
				<linearGradient id="SVGID_11_" gradientUnits="userSpaceOnUse" x1="33" y1="55.225" x2="58.95" y2="55.225" gradientTransform="matrix(1 0 0 -1 0 182)">
				<stop  offset="0" style="stop-color:#595959"/>
				<stop  offset="0.57" style="stop-color:#525252;stop-opacity:0.45"/>
				<stop  offset="1" style="stop-color:#4C4C4C;stop-opacity:0"/>
			</linearGradient>
			<path class="st12" d="M35.8,130.8v-5c0-1.7,1.4-3.1,3.1-3.1c0,0,0,0,0,0H70c0,0-17.7,0.7-25,3.2S35.8,130.8,35.8,130.8z"/>
		</g>
	</g>
</g>
</svg>
