<?xml version="1.0" encoding="utf-8"?>
<!-- Generator: Adobe Illustrator 21.0.2, SVG Export Plug-In . SVG Version: 6.00 Build 0)  -->
<svg version="1.1" id="Ebene_1" xmlns="http://www.w3.org/2000/svg" xmlns:xlink="http://www.w3.org/1999/xlink" x="0px" y="0px"
	 viewBox="0 0 126 181" style="enable-background:new 0 0 126 181;" xml:space="preserve">
<style type="text/css">
	.st0{opacity:0.7;}
	.st1{fill:url(#SVGID_1_);stroke:#000000;stroke-width:2;}
	.st2{fill:url(#SVGID_2_);stroke:#000000;stroke-width:2;}
	.st3{fill:url(#SVGID_3_);stroke:#000000;stroke-width:2;}
	.st4{opacity:0.6;fill:url(#SVGID_4_);stroke:#000000;stroke-width:2;enable-background:new    ;}
	.st5{fill:url(#SVGID_5_);stroke:#000000;stroke-width:2;}
	.st6{fill:url(#SVGID_6_);stroke:#000000;stroke-width:2;}
	.st7{opacity:0.6;fill:url(#SVGID_7_);stroke:#000000;stroke-width:2;enable-background:new    ;}
	.st8{fill:url(#SVGID_8_);stroke:#000000;stroke-width:2;}
	.st9{opacity:0.6;fill:url(#SVGID_9_);stroke:#000000;stroke-width:2;enable-background:new    ;}
	.st10{fill:url(#SVGID_10_);stroke:#000000;stroke-width:2;}
	.st11{opacity:0.6;fill:url(#SVGID_11_);stroke:#000000;stroke-width:2;enable-background:new    ;}
</style>
<title>Rook</title>
<g>
	<g id="Ebene_2">
		<g id="Objects">
			<g class="st0">
				<image style="overflow:visible;enable-background:new    ;" width="126" height="181" xlink:href="2BFD4F02.png" >
				</image>
			</g>
			
				<linearGradient id="SVGID_1_" gradientUnits="userSpaceOnUse" x1="39.96" y1="137.285" x2="83.07" y2="137.285" gradientTransform="matrix(1 0 0 -1 0 182)">
				<stop  offset="0" style="stop-color:#FFFFFF"/>
				<stop  offset="0.66" style="stop-color:#CECECE"/>
				<stop  offset="0.92" style="stop-color:#B9B9B9"/>
				<stop  offset="1" style="stop-color:#999999"/>
			</linearGradient>
			<polygon class="st1" points="75.2,35.3 73.2,41.6 68.3,41.6 69.9,35.3 62,35.3 61,35.3 53.1,35.3 54.7,41.6 49.8,41.6 47.8,35.3 
				40,35.3 49.7,54.2 61,54.2 62,54.2 73.4,54.2 83.1,35.3 			"/>
			
				<linearGradient id="SVGID_2_" gradientUnits="userSpaceOnUse" x1="45.45" y1="99.63" x2="71.51" y2="99.63" gradientTransform="matrix(1 0 0 -1 0 182)">
				<stop  offset="0" style="stop-color:#FFFFFF"/>
				<stop  offset="0.16" style="stop-color:#FFFFFF"/>
				<stop  offset="0.68" style="stop-color:#CECECE"/>
				<stop  offset="0.89" style="stop-color:#B9B9B9"/>
				<stop  offset="1" style="stop-color:#A3A3A3"/>
			</linearGradient>
			<polygon class="st2" points="75.4,107.5 47.6,107.5 53.6,57.2 69.4,57.2 			"/>
			
				<linearGradient id="SVGID_3_" gradientUnits="userSpaceOnUse" x1="42.9" y1="76.12" x2="78.63" y2="76.12" gradientTransform="matrix(1 0 0 -1 0 182)">
				<stop  offset="0" style="stop-color:#FFFFFF"/>
				<stop  offset="0.66" style="stop-color:#CECECE"/>
				<stop  offset="0.92" style="stop-color:#B9B9B9"/>
				<stop  offset="1" style="stop-color:#999999"/>
			</linearGradient>
			<path class="st3" d="M78.7,107.5c0,1.1-0.9,2-2,2H46.3c-1.1,0-2-0.9-2-2v-3.2c0-1.1,0.9-2,2-2h30.3c1.1,0,2,0.9,2,2L78.7,107.5z"
				/>
			
				<linearGradient id="SVGID_4_" gradientUnits="userSpaceOnUse" x1="42.4" y1="77.095" x2="58.93" y2="77.095" gradientTransform="matrix(1 0 0 -1 0 182)">
				<stop  offset="0" style="stop-color:#FFFFFF"/>
				<stop  offset="0.21" style="stop-color:#FFFFFF;stop-opacity:0.81"/>
				<stop  offset="0.69" style="stop-color:#FFFFFF;stop-opacity:0.32"/>
				<stop  offset="1" style="stop-color:#FFFFFF;stop-opacity:0"/>
			</linearGradient>
			<path class="st4" d="M44.3,107.5v-3.3c0-1.1,0.9-2,2-2h19.8c0,0-11.2,0.4-15.9,2S44.3,107.5,44.3,107.5z"/>
			
				<linearGradient id="SVGID_5_" gradientUnits="userSpaceOnUse" x1="44.13" y1="126.645" x2="72.35" y2="126.645" gradientTransform="matrix(1 0 0 -1 0 182)">
				<stop  offset="0" style="stop-color:#FFFFFF"/>
				<stop  offset="0.16" style="stop-color:#FFFFFF"/>
				<stop  offset="0.68" style="stop-color:#CECECE"/>
				<stop  offset="0.89" style="stop-color:#B9B9B9"/>
				<stop  offset="1" style="stop-color:#A3A3A3"/>
			</linearGradient>
			<path class="st5" d="M76.6,55.4c0,1-0.8,1.9-1.8,1.9c0,0,0,0,0,0H48.3c-1,0-1.9-0.8-1.9-1.8c0,0,0,0,0,0l0,0c0-1,0.8-1.9,1.8-1.9
				c0,0,0,0,0,0h26.4C75.7,53.5,76.6,54.3,76.6,55.4C76.6,55.3,76.6,55.4,76.6,55.4L76.6,55.4z"/>
			
				<linearGradient id="SVGID_6_" gradientUnits="userSpaceOnUse" x1="40.05" y1="69.485" x2="81.25" y2="69.485" gradientTransform="matrix(1 0 0 -1 0 182)">
				<stop  offset="0" style="stop-color:#FFFFFF"/>
				<stop  offset="0.66" style="stop-color:#CECECE"/>
				<stop  offset="0.92" style="stop-color:#B9B9B9"/>
				<stop  offset="1" style="stop-color:#999999"/>
			</linearGradient>
			<path class="st6" d="M81.3,114.3c0,1.3-1,2.3-2.3,2.3c0,0,0,0,0,0H44c-1.3,0-2.3-1-2.3-2.3c0,0,0,0,0,0v-3.7c0-1.3,1-2.3,2.3-2.3
				h35c1.3,0,2.3,1,2.3,2.3c0,0,0,0,0,0L81.3,114.3z"/>
			
				<linearGradient id="SVGID_7_" gradientUnits="userSpaceOnUse" x1="39.65" y1="70.605" x2="56.9" y2="70.605" gradientTransform="matrix(1 0 0 -1 0 182)">
				<stop  offset="0" style="stop-color:#FFFFFF"/>
				<stop  offset="0.21" style="stop-color:#FFFFFF;stop-opacity:0.81"/>
				<stop  offset="0.69" style="stop-color:#FFFFFF;stop-opacity:0.32"/>
				<stop  offset="1" style="stop-color:#FFFFFF;stop-opacity:0"/>
			</linearGradient>
			<path class="st7" d="M41.7,114.4v-3.8c0-1.3,1-2.3,2.3-2.3h22.1c0,0-12.3,0.5-17.7,2.3S41.7,114.4,41.7,114.4z"/>
			
				<linearGradient id="SVGID_8_" gradientUnits="userSpaceOnUse" x1="36.94" y1="61.455" x2="84.11" y2="61.455" gradientTransform="matrix(1 0 0 -1 0 182)">
				<stop  offset="0" style="stop-color:#FFFFFF"/>
				<stop  offset="0.66" style="stop-color:#CECECE"/>
				<stop  offset="0.92" style="stop-color:#B9B9B9"/>
				<stop  offset="1" style="stop-color:#999999"/>
			</linearGradient>
			<path class="st8" d="M84.2,122.7c0,1.5-1.2,2.6-2.6,2.6c0,0,0,0,0,0h-40c-1.5,0-2.6-1.2-2.6-2.6v-4.2c0-1.5,1.2-2.6,2.6-2.6h40
				c1.5,0,2.6,1.2,2.7,2.6V122.7z"/>
			
				<linearGradient id="SVGID_9_" gradientUnits="userSpaceOnUse" x1="36.24" y1="62.73" x2="59.04" y2="62.73" gradientTransform="matrix(1 0 0 -1 0 182)">
				<stop  offset="0" style="stop-color:#FFFFFF"/>
				<stop  offset="0.21" style="stop-color:#FFFFFF;stop-opacity:0.81"/>
				<stop  offset="0.69" style="stop-color:#FFFFFF;stop-opacity:0.32"/>
				<stop  offset="1" style="stop-color:#FFFFFF;stop-opacity:0"/>
			</linearGradient>
			<path class="st9" d="M38.8,122.7v-4.3c0-1.5,1.2-2.6,2.6-2.6H69c0,0-16.2,0.6-22.3,2.7S38.8,122.7,38.8,122.7z"/>
			
				<linearGradient id="SVGID_10_" gradientUnits="userSpaceOnUse" x1="32.73" y1="49" x2="87.99" y2="49" gradientTransform="matrix(1 0 0 -1 0 182)">
				<stop  offset="0" style="stop-color:#FFFFFF"/>
				<stop  offset="0.66" style="stop-color:#CECECE"/>
				<stop  offset="0.92" style="stop-color:#B9B9B9"/>
				<stop  offset="1" style="stop-color:#999999"/>
			</linearGradient>
			<path class="st10" d="M88.1,140.2c0,1.7-1.4,3.1-3.1,3.1H38.1c-1.7,0-3.1-1.4-3.1-3.1c0,0,0,0,0,0v-14.4c0-1.7,1.4-3.1,3.1-3.1
				H85c1.7,0,3.1,1.4,3.1,3.1L88.1,140.2z"/>
			
				<linearGradient id="SVGID_11_" gradientUnits="userSpaceOnUse" x1="32.17" y1="55.205" x2="57.97" y2="55.205" gradientTransform="matrix(1 0 0 -1 0 182)">
				<stop  offset="0" style="stop-color:#FFFFFF"/>
				<stop  offset="0.21" style="stop-color:#FFFFFF;stop-opacity:0.81"/>
				<stop  offset="0.69" style="stop-color:#FFFFFF;stop-opacity:0.32"/>
				<stop  offset="1" style="stop-color:#FFFFFF;stop-opacity:0"/>
			</linearGradient>
			<path class="st11" d="M35,130.8v-5c0-1.7,1.4-3.1,3.1-3.1H69c0,0-17.6,0.7-24.9,3.1S35,130.8,35,130.8z"/>
		</g>
	</g>
</g>
</svg>
